<svg xmlns="http://www.w3.org/2000/svg" viewBox="0 0 24 24">
    <path d="M 11.900391 6.21875 C 10.462894 6.21875 9.3795554 6.4763468 8.6503906 6.9902344 C 7.9212258 7.5041219 7.4079853 8.2957927 7.109375 9.3652344 L 9.765625 9.84375 C 9.9461801 9.3298624 10.182943 8.9728727 10.474609 8.7714844 C 10.766275 8.5631516 11.172527 8.4589844 11.693359 8.4589844 C 12.464191 8.4589844 12.987848 8.5792107 13.265625 8.8222656 C 13.543402 9.0583761 13.681641 9.4589858 13.681641 10.021484 L 13.681641 10.3125 C 13.153864 10.534722 12.205943 10.774306 10.837891 11.03125 C 9.8240044 11.225694 9.0475246 11.454862 8.5058594 11.71875 C 7.9711385 11.975694 7.5544697 12.350696 7.2558594 12.84375 C 6.957249 13.32986 6.8066406 13.884767 6.8066406 14.509766 C 6.8066406 15.454208 7.1343333 16.235462 7.7871094 16.853516 C 8.4468299 17.47157 9.345489 17.78125 10.484375 17.78125 C 11.130207 17.78125 11.737198 17.659071 12.306641 17.416016 C 12.876084 17.172961 13.412111 16.808375 13.912109 16.322266 C 13.932943 16.377821 13.967014 16.492405 14.015625 16.666016 C 14.126736 17.047959 14.220486 17.336806 14.296875 17.53125 L 17.193359 17.53125 C 16.936416 17.003474 16.759331 16.511067 16.662109 16.052734 C 16.571832 15.587458 16.525391 14.868704 16.525391 13.896484 L 16.556641 10.478516 C 16.556641 9.2076856 16.425998 8.3374554 16.162109 7.8652344 C 15.905166 7.3860689 15.457247 6.9930548 14.818359 6.6875 C 14.179472 6.3750008 13.205943 6.21875 11.900391 6.21875 z M 13.681641 12.21875 L 13.681641 12.802734 C 13.681641 13.504121 13.644748 13.978516 13.568359 14.228516 C 13.457249 14.610459 13.223306 14.933377 12.869141 15.197266 C 12.389975 15.544487 11.887151 15.71875 11.359375 15.71875 C 10.887154 15.71875 10.498914 15.570095 10.193359 15.271484 C 9.8878046 14.972874 9.734375 14.618706 9.734375 14.208984 C 9.734375 13.792319 9.9246972 13.448567 10.306641 13.177734 C 10.55664 13.011068 11.087893 12.839626 11.900391 12.666016 C 12.712889 12.492405 13.306642 12.34375 13.681641 12.21875 z " />
</svg>