<svg xmlns="http://www.w3.org/2000/svg" viewBox="0 0 24 24">
    <path d="M 5.6035156 4.3652344 L 5.6035156 19.634766 L 10.802734 19.634766 C 12.768007 19.620877 14.007597 19.586805 14.521484 19.53125 C 15.340927 19.440972 16.02843 19.201388 16.583984 18.8125 C 17.146483 18.416668 17.586806 17.89301 17.90625 17.240234 C 18.232638 16.580514 18.396484 15.903427 18.396484 15.208984 C 18.396484 14.327042 18.146483 13.559026 17.646484 12.90625 C 17.146486 12.253474 16.430553 11.792317 15.5 11.521484 C 16.159721 11.222874 16.680557 10.774955 17.0625 10.177734 C 17.451388 9.5805137 17.646484 8.9242603 17.646484 8.2089844 C 17.646484 7.5492639 17.490234 6.9555108 17.177734 6.4277344 C 16.865235 5.8930135 16.472221 5.465928 16 5.1464844 C 15.534723 4.8270408 15.003471 4.6187063 14.40625 4.5214844 C 13.815974 4.417318 12.917315 4.3652344 11.708984 4.3652344 L 5.6035156 4.3652344 z M 8.6875 6.90625 L 10.458984 6.90625 C 11.91037 6.90625 12.788195 6.9242622 13.09375 6.9589844 C 13.607638 7.0214842 13.993056 7.2013897 14.25 7.5 C 14.513888 7.7916659 14.646484 8.1742634 14.646484 8.6464844 C 14.646484 9.1395387 14.493055 9.5381952 14.1875 9.84375 C 13.88889 10.14236 13.475042 10.322266 12.947266 10.384766 C 12.6556 10.419488 11.91037 10.4375 10.708984 10.4375 L 8.6875 10.4375 L 8.6875 6.90625 z M 8.6875 12.978516 L 11.177734 12.978516 C 12.580509 12.978516 13.489584 13.051433 13.90625 13.197266 C 14.32986 13.343099 14.652778 13.577041 14.875 13.896484 C 15.097222 14.215928 15.208984 14.604168 15.208984 15.0625 C 15.208984 15.604165 15.06315 16.038846 14.771484 16.365234 C 14.486763 16.684678 14.114582 16.885417 13.65625 16.96875 C 13.35764 17.03125 12.652124 17.0625 11.541016 17.0625 L 8.6875 17.0625 L 8.6875 12.978516 z " />
</svg>