<svg xmlns="http://www.w3.org/2000/svg" viewBox="0 0 24 24">
    <path d="M 6.5996094 4.2402344 L 6.5996094 19.509766 L 9.3183594 19.509766 L 9.3183594 17.884766 C 9.7628027 18.50282 10.289281 18.971572 10.900391 19.291016 C 11.518445 19.603515 12.143448 19.759766 12.775391 19.759766 C 14.06011 19.759766 15.151044 19.249346 16.046875 18.228516 C 16.94965 17.207685 17.400391 15.754118 17.400391 13.865234 C 17.400391 12.03885 16.960067 10.638235 16.078125 9.6660156 C 15.196183 8.6868515 14.081594 8.1972656 12.734375 8.1972656 C 11.498267 8.1972656 10.428166 8.7124592 9.5253906 9.7402344 L 9.5253906 4.2402344 L 6.5996094 4.2402344 z M 11.953125 10.4375 C 12.668401 10.4375 13.254558 10.718751 13.712891 11.28125 C 14.171223 11.836804 14.400391 12.74588 14.400391 14.009766 C 14.400391 15.197263 14.171223 16.069446 13.712891 16.625 C 13.261503 17.17361 12.714191 17.447266 12.068359 17.447266 C 11.228084 17.447266 10.553818 17.059026 10.046875 16.28125 C 9.6857648 15.73264 9.5058594 14.886065 9.5058594 13.740234 C 9.5058594 12.629126 9.7378484 11.801431 10.203125 11.259766 C 10.668402 10.711156 11.251738 10.4375 11.953125 10.4375 z " />
</svg>