<svg xmlns="http://www.w3.org/2000/svg" viewBox="0 0 24 24">
    <path d="M 12.494141 4.1035156 C 10.355257 4.1035156 8.630856 4.8090314 7.3183594 6.21875 C 6.0058628 7.6215242 5.3496094 9.5931055 5.3496094 12.134766 C 5.3496094 14.537537 6.0010884 16.43338 7.3066406 17.822266 C 8.6121928 19.204207 10.278868 19.896484 12.306641 19.896484 C 13.945525 19.896484 15.296878 19.493053 16.359375 18.6875 C 17.428817 17.875002 18.192058 16.635412 18.650391 14.96875 L 15.662109 14.021484 C 15.405166 15.139537 14.980901 15.957684 14.390625 16.478516 C 13.800349 16.999348 13.094833 17.259766 12.275391 17.259766 C 11.164282 17.259766 10.262802 16.850692 9.5683594 16.03125 C 8.8739167 15.211808 8.5253906 13.836801 8.5253906 11.90625 C 8.5253906 10.08681 8.8767379 8.7714823 9.578125 7.9589844 C 10.286457 7.1464865 11.205949 6.7402344 12.337891 6.7402344 C 13.157333 6.7402344 13.852432 6.9694022 14.421875 7.4277344 C 14.998262 7.8860665 15.376086 8.5110698 15.556641 9.3027344 L 18.609375 8.5722656 C 18.262154 7.3500466 17.741318 6.4125417 17.046875 5.7597656 C 15.880211 4.6556018 14.362191 4.1035156 12.494141 4.1035156 z " />
</svg>