<svg xmlns="http://www.w3.org/2000/svg" viewBox="0 0 24 24">
    <path d="M 12.146484 6.21875 C 10.500655 6.21875 9.1937909 6.7291693 8.2285156 7.75 C 7.2632403 8.7638863 6.78125 10.183381 6.78125 12.009766 C 6.78125 13.815317 7.2604191 15.229169 8.21875 16.25 C 9.1840253 17.270831 10.475699 17.78125 12.09375 17.78125 C 13.517357 17.78125 14.65278 17.445094 15.5 16.771484 C 16.34722 16.097875 16.92014 15.100691 17.21875 13.78125 L 14.34375 13.291016 C 14.197917 14.061847 13.947916 14.608291 13.59375 14.927734 C 13.239584 15.240234 12.78407 15.396484 12.228516 15.396484 C 11.485462 15.396484 10.891709 15.12565 10.447266 14.583984 C 10.009767 14.042319 9.7910156 13.115231 9.7910156 11.802734 C 9.7910156 10.622182 10.006946 9.7812487 10.4375 9.28125 C 10.874999 8.7743069 11.458335 8.5214844 12.1875 8.5214844 C 12.73611 8.5214844 13.181207 8.6673185 13.521484 8.9589844 C 13.868706 9.2506503 14.090278 9.6833782 14.1875 10.259766 L 17.072266 9.7402344 C 16.725044 8.5527374 16.152125 7.6701374 15.353516 7.09375 C 14.561851 6.5104182 13.493703 6.21875 12.146484 6.21875 z " />
</svg>