<svg xmlns="http://www.w3.org/2000/svg" viewBox="0 0 24 24">
    <path d="M 5.5996094 4.3652344 L 5.5996094 19.634766 L 11.400391 19.634766 C 12.539277 19.634766 13.450306 19.527777 14.130859 19.3125 C 15.040579 19.020834 15.762154 18.614582 16.296875 18.09375 C 17.005207 17.406252 17.549697 16.507593 17.931641 15.396484 C 18.24414 14.486764 18.400391 13.403426 18.400391 12.146484 C 18.400391 10.715933 18.233723 9.5132353 17.900391 8.5410156 C 17.567058 7.5618515 17.082247 6.7361094 16.443359 6.0625 C 15.804472 5.3888906 15.036456 4.9201382 14.140625 4.65625 C 13.47396 4.4618061 12.505205 4.3652344 11.234375 4.3652344 L 5.5996094 4.3652344 z M 8.6816406 6.9472656 L 10.068359 6.9472656 C 11.325301 6.9472656 12.169055 6.996528 12.599609 7.09375 C 13.175997 7.2187497 13.650392 7.4583342 14.025391 7.8125 C 14.40039 8.1666658 14.692058 8.6590728 14.900391 9.2910156 C 15.108723 9.9229584 15.212891 10.829213 15.212891 12.009766 C 15.212891 13.190318 15.108723 14.125002 14.900391 14.8125 C 14.692058 15.493054 14.421223 15.98264 14.087891 16.28125 C 13.761503 16.57986 13.349608 16.791016 12.849609 16.916016 C 12.467666 17.013238 11.845484 17.0625 10.984375 17.0625 L 8.6816406 17.0625 L 8.6816406 6.9472656 z " />
</svg>