<svg xmlns="http://www.w3.org/2000/svg" viewBox="0 0 24 24">
    <path d="M 14.474609 4.2402344 L 14.474609 9.7402344 C 13.571834 8.7124592 12.501733 8.1972656 11.265625 8.1972656 C 9.9184063 8.1972656 8.8038172 8.6868515 7.921875 9.6660156 C 7.0399328 10.638235 6.5996094 12.062505 6.5996094 13.9375 C 6.5996094 15.770829 7.0503496 17.20074 7.953125 18.228516 C 8.8628449 19.249346 9.9537793 19.759766 11.224609 19.759766 C 11.849608 19.759766 12.467015 19.608289 13.078125 19.302734 C 13.696179 18.990235 14.230253 18.516708 14.681641 17.884766 L 14.681641 19.509766 L 17.400391 19.509766 L 17.400391 4.2402344 L 14.474609 4.2402344 z M 12.037109 10.4375 C 12.752385 10.4375 13.338543 10.718751 13.796875 11.28125 C 14.255207 11.836804 14.484375 12.750654 14.484375 14.021484 C 14.484375 15.16037 14.247612 16.017363 13.775391 16.59375 C 13.30317 17.163193 12.73025 17.447266 12.056641 17.447266 C 11.209421 17.447266 10.550346 17.066621 10.078125 16.302734 C 9.751737 15.774958 9.5878906 14.920787 9.5878906 13.740234 C 9.5878906 12.643015 9.8218328 11.820094 10.287109 11.271484 C 10.75933 10.71593 11.342667 10.4375 12.037109 10.4375 z " />
</svg>