<svg xmlns="http://www.w3.org/2000/svg" viewBox="0 0 24 24">
    <path d="M 11.904297 6.21875 C 10.439023 6.21875 9.2278621 6.739586 8.2695312 7.78125 C 7.3112004 8.8159696 6.8320312 10.250656 6.8320312 12.083984 C 6.8320312 13.618703 7.1966165 14.889543 7.9257812 15.896484 C 8.84939 17.153426 10.273659 17.78125 12.197266 17.78125 C 13.41254 17.78125 14.422962 17.50282 15.228516 16.947266 C 16.041014 16.384767 16.634767 15.569442 17.009766 14.5 L 14.091797 14.009766 C 13.932075 14.56532 13.697265 14.968751 13.384766 15.21875 C 13.072266 15.468749 12.686848 15.59375 12.228516 15.59375 C 11.554906 15.59375 10.992403 15.354165 10.541016 14.875 C 10.089628 14.38889 9.8528645 13.711803 9.8320312 12.84375 L 17.166016 12.84375 C 17.207682 10.6007 16.752168 8.9368462 15.800781 7.8535156 C 14.849395 6.7632407 13.550126 6.21875 11.904297 6.21875 z M 12.082031 8.4589844 C 12.679252 8.4589844 13.18685 8.6805567 13.603516 9.125 C 14.020181 9.5624989 14.238932 10.205514 14.259766 11.052734 L 9.8847656 11.052734 C 9.8778212 10.254125 10.081381 9.6215266 10.498047 9.15625 C 10.914712 8.6909734 11.443144 8.4589844 12.082031 8.4589844 z " />
</svg>