<svg xmlns="http://www.w3.org/2000/svg" viewBox="0 0 24 24">
    <path d="M 13.291016 4.234375 C 12.478518 4.234375 11.806205 4.3802091 11.271484 4.671875 C 10.743708 4.9565965 10.379123 5.3287772 10.177734 5.7871094 C 9.9832904 6.2454415 9.8847656 6.9385875 9.8847656 7.8691406 L 9.8847656 8.703125 L 8.2597656 8.703125 L 8.2597656 11.005859 L 9.8847656 11.005859 L 9.8847656 19.765625 L 12.8125 19.765625 L 12.8125 11.005859 L 15 11.005859 L 15 8.703125 L 12.8125 8.703125 L 12.8125 7.921875 C 12.8125 7.3593765 12.903429 6.9815533 13.083984 6.7871094 C 13.271484 6.585721 13.57639 6.484375 14 6.484375 C 14.430554 6.484375 14.878473 6.5392798 15.34375 6.6503906 L 15.740234 4.609375 C 14.941625 4.3593756 14.124347 4.234375 13.291016 4.234375 z " />
</svg>