<svg xmlns="http://www.w3.org/2000/svg" viewBox="0 0 24 24">
    <path d="M 12.443359 4.1035156 C 10.98503 4.1035156 9.7662735 4.3582912 8.7871094 4.8652344 C 7.5023905 5.5249549 6.5260399 6.4728765 5.859375 7.7089844 C 5.1927101 8.9450923 4.859375 10.356992 4.859375 11.947266 C 4.859375 13.41254 5.1586387 14.771488 5.7558594 16.021484 C 6.3530801 17.264537 7.2441437 18.222875 8.4316406 18.896484 C 9.6191376 19.563149 11.012157 19.896484 12.609375 19.896484 C 13.866316 19.896484 15.105906 19.659721 16.328125 19.1875 C 17.557288 18.708335 18.494793 18.156248 19.140625 17.53125 L 19.140625 11.447266 L 12.494141 11.447266 L 12.494141 14.021484 L 16.025391 14.021484 L 16.025391 15.958984 C 15.560114 16.320095 15.002385 16.627822 14.349609 16.884766 C 13.703778 17.134765 13.057941 17.259766 12.412109 17.259766 C 11.106557 17.259766 10.049694 16.809025 9.2441406 15.90625 C 8.4385871 14.99653 8.0371094 13.634761 8.0371094 11.822266 C 8.0371094 10.141714 8.4329448 8.8756488 9.2246094 8.0214844 C 10.023218 7.1673199 11.096141 6.7402344 12.443359 6.7402344 C 13.332246 6.7402344 14.071833 6.9589855 14.662109 7.3964844 C 15.25933 7.8270388 15.665582 8.4160176 15.880859 9.1660156 L 18.943359 8.59375 C 18.637805 7.1909758 17.950301 6.094399 16.880859 5.3027344 C 15.818362 4.5041253 14.339188 4.1035156 12.443359 4.1035156 z " />
</svg>