<svg xmlns="http://www.w3.org/2000/svg" viewBox="0 0 24 24">
    <path d="M 11.271484 4.0996094 C 9.9450989 4.0996094 8.833331 4.5891952 7.9375 5.5683594 C 7.0486134 6.5475235 6.6035156 7.9641975 6.6035156 9.8183594 C 6.6035156 11.297522 6.9444462 12.532338 7.625 13.525391 C 8.4930533 14.782332 9.6701427 15.412109 11.15625 15.412109 C 12.48958 15.412109 13.593752 14.813582 14.46875 13.619141 L 14.46875 15.234375 C 14.46875 15.887151 14.424262 16.33507 14.333984 16.578125 C 14.20204 16.918402 14.006944 17.165582 13.75 17.318359 C 13.368057 17.547525 12.795137 17.662109 12.03125 17.662109 C 11.434029 17.662109 10.996527 17.557942 10.71875 17.349609 C 10.517362 17.203776 10.38954 16.935763 10.333984 16.546875 L 6.9902344 16.140625 C 6.9832899 16.279514 6.9785156 16.396919 6.9785156 16.494141 C 6.9785156 17.480249 7.3715298 18.292753 8.15625 18.931641 C 8.9409702 19.577472 10.271489 19.900391 12.146484 19.900391 C 13.139537 19.900391 13.957684 19.796223 14.603516 19.587891 C 15.256292 19.379558 15.777128 19.092664 16.166016 18.724609 C 16.554904 18.356555 16.856988 17.848957 17.072266 17.203125 C 17.287543 16.557293 17.396484 15.580943 17.396484 14.275391 L 17.396484 4.3496094 L 14.65625 4.3496094 L 14.65625 5.9003906 C 13.767363 4.6990048 12.639536 4.0996094 11.271484 4.0996094 z M 12.021484 6.3378906 C 12.743705 6.3378906 13.340279 6.6163209 13.8125 7.171875 C 14.284721 7.7274291 14.521484 8.578779 14.521484 9.7246094 C 14.521484 10.821829 14.274304 11.650392 13.78125 12.212891 C 13.288196 12.768445 12.684026 13.046875 11.96875 13.046875 C 11.302085 13.046875 10.739582 12.77604 10.28125 12.234375 C 9.8298623 11.685765 9.6035156 10.823999 9.6035156 9.6503906 C 9.6035156 8.532338 9.8298623 7.7037746 10.28125 7.1621094 C 10.739582 6.6134997 11.320097 6.3378906 12.021484 6.3378906 z " />
</svg>