<svg xmlns="http://www.w3.org/2000/svg" viewBox="0 0 24 24">
    <path d="M 6.9628906 4.3652344 L 6.9628906 19.634766 L 9.890625 19.634766 L 9.890625 14.09375 C 9.890625 13.163197 9.97678 12.462455 10.150391 11.990234 C 10.330946 11.511069 10.612197 11.152126 10.994141 10.916016 C 11.376084 10.679905 11.810765 10.5625 12.296875 10.5625 C 12.720485 10.5625 13.071832 10.65625 13.349609 10.84375 C 13.634331 11.024305 13.832249 11.271485 13.943359 11.583984 C 14.05447 11.896484 14.109375 12.631296 14.109375 13.791016 L 14.109375 19.634766 L 17.037109 19.634766 L 17.037109 13.146484 C 17.037109 12.153431 16.985026 11.419487 16.880859 10.947266 C 16.783637 10.475045 16.596136 10.045138 16.318359 9.65625 C 16.047527 9.2673621 15.641275 8.947265 15.099609 8.6972656 C 14.557944 8.4472663 13.949 8.3222656 13.275391 8.3222656 C 11.962894 8.3222656 10.835067 8.8743518 9.890625 9.9785156 L 9.890625 4.3652344 L 6.9628906 4.3652344 z " />
</svg>