<svg xmlns="http://www.w3.org/2000/svg" viewBox="0 0 24 24">
  <path d="M 13.8125 4.234375 L 13.8125 14.099609 C 13.8125 15.335717 13.669487 16.151043 13.384766 16.546875 C 13.100044 16.935763 12.615233 17.130859 11.927734 17.130859 C 11.247181 17.130859 10.739582 16.85525 10.40625 16.306641 C 10.184028 15.94553 10.056207 15.328123 10.021484 14.453125 L 7.1152344 14.787109 C 7.1221788 16.41905 7.5312521 17.658639 8.34375 18.505859 C 9.1562479 19.346135 10.315325 19.765625 11.822266 19.765625 C 13.106985 19.765625 14.143014 19.497611 14.927734 18.962891 C 15.712455 18.421225 16.254124 17.707246 16.552734 16.818359 C 16.774956 16.137806 16.884766 15.164276 16.884766 13.900391 L 16.884766 4.234375 L 13.8125 4.234375 z " />
</svg>