<svg xmlns="http://www.w3.org/2000/svg" viewBox="0 0 24 24">
    <path d="M 11.759766 2.1191406 L 11.759766 4.828125 L 14.6875 4.828125 L 14.6875 2.1191406 L 11.759766 2.1191406 z M 11.759766 6.328125 L 11.759766 16.880859 C 11.759766 17.783635 11.728515 18.325304 11.666016 18.505859 C 11.603516 18.686414 11.475694 18.837891 11.28125 18.962891 C 11.09375 19.094835 10.851345 19.162109 10.552734 19.162109 C 10.448568 19.162109 10.336805 19.151693 10.21875 19.130859 C 10.09375 19.116971 9.9611542 19.096137 9.8222656 19.068359 L 9.3125 21.568359 C 9.7013879 21.672526 10.063152 21.748264 10.396484 21.796875 C 10.736761 21.85243 11.052084 21.880859 11.34375 21.880859 C 12.156248 21.880859 12.822918 21.717013 13.34375 21.390625 C 13.871526 21.064237 14.225695 20.608722 14.40625 20.025391 C 14.59375 19.449003 14.6875 18.456594 14.6875 17.046875 L 14.6875 6.328125 L 11.759766 6.328125 z " />
</svg>