<svg xmlns="http://www.w3.org/2000/svg" viewBox="0 0 24 24">
    <path d="M 10.009766 6.34375 C 8.6764357 6.34375 7.5277753 6.9299075 6.5625 8.1035156 L 6.5625 6.59375 L 3.8652344 6.59375 L 3.8652344 17.65625 L 6.7910156 17.65625 L 6.7910156 12.28125 C 6.7910156 11.218753 6.868707 10.458332 7.0214844 10 C 7.1812062 9.5416678 7.4416242 9.1903206 7.8027344 8.9472656 C 8.1638446 8.7042107 8.5700967 8.5839844 9.0214844 8.5839844 C 9.3964834 8.5839844 9.6909728 8.6597226 9.90625 8.8125 C 10.128472 8.9652774 10.292318 9.1972664 10.396484 9.5097656 C 10.500651 9.8222648 10.552734 10.517364 10.552734 11.59375 L 10.552734 17.65625 L 13.478516 17.65625 L 13.478516 12.34375 C 13.478516 11.302086 13.559028 10.541665 13.71875 10.0625 C 13.878472 9.5763901 14.13889 9.2089837 14.5 8.9589844 C 14.86111 8.708985 15.246529 8.5839844 15.65625 8.5839844 C 16.218749 8.5839844 16.635417 8.7923188 16.90625 9.2089844 C 17.107638 9.528428 17.208984 10.236765 17.208984 11.333984 L 17.208984 17.65625 L 20.134766 17.65625 L 20.134766 10.583984 C 20.134766 9.5284315 20.035373 8.7632366 19.833984 8.2910156 C 19.556207 7.6521284 19.134764 7.170138 18.572266 6.84375 C 18.009767 6.5104175 17.322264 6.34375 16.509766 6.34375 C 15.870878 6.34375 15.271483 6.4895841 14.708984 6.78125 C 14.146486 7.0729159 13.620875 7.5132394 13.134766 8.1035156 C 12.801433 7.5132394 12.374348 7.0729159 11.853516 6.78125 C 11.332684 6.4895841 10.718097 6.34375 10.009766 6.34375 z " />
</svg>