<svg xmlns="http://www.w3.org/2000/svg" viewBox="0 0 24 24">
    <path d="M 13.322266 6.34375 C 11.856992 6.34375 10.64301 6.9687532 9.6777344 8.21875 L 9.6777344 6.59375 L 6.9589844 6.59375 L 6.9589844 17.65625 L 9.8847656 17.65625 L 9.8847656 12.646484 C 9.8847656 11.410376 9.9576827 10.561848 10.103516 10.103516 C 10.256293 9.6451835 10.534723 9.2777771 10.9375 9 C 11.340277 8.7222229 11.795791 8.5839844 12.302734 8.5839844 C 12.698567 8.5839844 13.034723 8.6805561 13.3125 8.875 C 13.597221 9.0694439 13.802735 9.3430999 13.927734 9.6972656 C 14.052734 10.044487 14.115234 10.815324 14.115234 12.009766 L 14.115234 17.65625 L 17.041016 17.65625 L 17.041016 10.78125 C 17.041016 9.9270855 16.986111 9.2708322 16.875 8.8125 C 16.770834 8.3541678 16.580511 7.9450946 16.302734 7.5839844 C 16.031902 7.2228742 15.628471 6.9264317 15.09375 6.6972656 C 14.559029 6.4611551 13.968097 6.34375 13.322266 6.34375 z " />
</svg>