<svg xmlns="http://www.w3.org/2000/svg" viewBox="0 0 24 24">
    <path d="M 11.978516 4.1035156 C 10.735463 4.1035156 9.6388864 4.3062076 8.6875 4.7089844 C 7.9722241 5.0075947 7.3131495 5.4659304 6.7089844 6.0839844 C 6.1117637 6.7020383 5.638237 7.3999586 5.2910156 8.1777344 C 4.825739 9.2332872 4.59375 10.538198 4.59375 12.09375 C 4.59375 14.524299 5.2632413 16.43338 6.6035156 17.822266 C 7.9437899 19.204207 9.7506569 19.896484 12.021484 19.896484 C 14.264534 19.896484 16.05621 19.201385 17.396484 17.8125 C 18.736759 16.41667 19.40625 14.486756 19.40625 12.021484 C 19.40625 9.5353797 18.729163 7.5930954 17.375 6.1972656 C 16.027781 4.8014359 14.22851 4.1035156 11.978516 4.1035156 z M 12.009766 6.7402344 C 13.280596 6.7402344 14.298613 7.1701411 15.0625 8.03125 C 15.833331 8.8923589 16.21875 10.19727 16.21875 11.947266 C 16.21875 13.718094 15.822915 15.048613 15.03125 15.9375 C 14.24653 16.819442 13.238929 17.259766 12.009766 17.259766 C 10.780602 17.259766 9.7673591 16.816621 8.96875 15.927734 C 8.1701409 15.031903 7.7714844 13.719397 7.7714844 11.990234 C 7.7714844 10.233294 8.1597242 8.9207877 8.9375 8.0527344 C 9.7152758 7.1777366 10.738936 6.7402344 12.009766 6.7402344 z " />
</svg>