<svg xmlns="http://www.w3.org/2000/svg" viewBox="0 0 24 24">
    <path d="M 11.990234 6.21875 C 10.906904 6.21875 9.9229578 6.4583346 9.0410156 6.9375 C 8.1660179 7.4166654 7.4889311 8.1117645 7.0097656 9.0214844 C 6.5306002 9.9312043 6.2910156 10.87153 6.2910156 11.84375 C 6.2910156 13.11458 6.5306002 14.195098 7.0097656 15.083984 C 7.4889311 15.965927 8.1868513 16.635418 9.1035156 17.09375 C 10.027124 17.552082 10.995879 17.78125 12.009766 17.78125 C 13.64865 17.78125 15.007598 17.231985 16.083984 16.134766 C 17.167315 15.030602 17.708984 13.642357 17.708984 11.96875 C 17.708984 10.309032 17.172957 8.9368462 16.103516 7.8535156 C 15.034074 6.7632407 13.663841 6.21875 11.990234 6.21875 z M 12 8.6035156 C 12.763887 8.6035156 13.402128 8.8951838 13.916016 9.4785156 C 14.436848 10.061847 14.697266 10.895185 14.697266 11.978516 C 14.697266 13.089624 14.436848 13.938153 13.916016 14.521484 C 13.402128 15.104816 12.763887 15.396484 12 15.396484 C 11.236113 15.396484 10.593098 15.104816 10.072266 14.521484 C 9.5514336 13.938153 9.2910156 13.097219 9.2910156 12 C 9.2910156 10.902781 9.5514336 10.061847 10.072266 9.4785156 C 10.593098 8.8951838 11.236113 8.6035156 12 8.6035156 z " />
</svg>