<svg xmlns="http://www.w3.org/2000/svg" viewBox="0 0 24 24">
    <path d="M 6.1503906 4.3652344 L 6.1503906 19.634766 L 9.234375 19.634766 L 9.234375 13.875 L 11.244141 13.875 C 12.63997 13.875 13.70725 13.802083 14.443359 13.65625 C 14.985025 13.538195 15.516277 13.29861 16.037109 12.9375 C 16.564886 12.569445 16.997614 12.066622 17.337891 11.427734 C 17.678168 10.788847 17.849609 9.9999976 17.849609 9.0625 C 17.849609 7.8472254 17.553167 6.8576369 16.962891 6.09375 C 16.372614 5.3229187 15.640623 4.8229161 14.765625 4.59375 C 14.196182 4.4409726 12.974605 4.3652344 11.099609 4.3652344 L 6.1503906 4.3652344 z M 9.234375 6.9472656 L 10.724609 6.9472656 C 11.835718 6.9472656 12.575305 6.9832901 12.943359 7.0527344 C 13.443358 7.1430119 13.855253 7.3674054 14.181641 7.7285156 C 14.508029 8.0896258 14.671875 8.5479615 14.671875 9.1035156 C 14.671875 9.5549033 14.55447 9.9507387 14.318359 10.291016 C 14.089193 10.631293 13.769096 10.881294 13.359375 11.041016 C 12.949654 11.200737 12.13715 11.28125 10.921875 11.28125 L 9.234375 11.28125 L 9.234375 6.9472656 z " />
</svg>