<svg xmlns="http://www.w3.org/2000/svg" viewBox="0 0 24 24">
    <path d="M 12.78125 4.2402344 C 12.045141 4.2402344 11.375649 4.4125443 10.771484 4.7597656 C 10.167319 5.106987 9.6881501 5.5596803 9.3339844 6.1152344 L 9.3339844 4.4902344 L 6.6035156 4.4902344 L 6.6035156 19.759766 L 9.53125 19.759766 L 9.53125 14.1875 C 10.07986 14.777776 10.600696 15.194445 11.09375 15.4375 C 11.593749 15.680555 12.148656 15.802734 12.759766 15.802734 C 14.044485 15.802734 15.13824 15.292315 16.041016 14.271484 C 16.943791 13.243709 17.396484 11.806202 17.396484 9.9589844 C 17.396484 8.1603779 16.948565 6.7569418 16.052734 5.75 C 15.156903 4.7430582 14.065969 4.2402344 12.78125 4.2402344 z M 11.990234 6.5527344 C 12.677733 6.5527344 13.253473 6.8339858 13.71875 7.3964844 C 14.184027 7.9589829 14.416016 8.8187964 14.416016 9.9785156 C 14.416016 11.221568 14.191622 12.117406 13.740234 12.666016 C 13.288847 13.207681 12.721569 13.478516 12.041016 13.478516 C 11.332684 13.478516 10.733289 13.184026 10.240234 12.59375 C 9.7471801 11.996529 9.5 11.077037 9.5 9.8339844 C 9.5 8.7506538 9.7367634 7.9333753 10.208984 7.3847656 C 10.681205 6.8292115 11.274958 6.5527344 11.990234 6.5527344 z " />
</svg>