<svg xmlns="http://www.w3.org/2000/svg" viewBox="0 0 24 24">
    <path d="M 11.734375 3.46875 C 9.4496587 3.46875 7.6399705 4.1638491 6.3066406 5.5527344 C 4.9733107 6.9346753 4.3066406 8.8721853 4.3066406 11.365234 C 4.3066406 13.865228 4.9704895 15.805559 6.296875 17.1875 C 7.6302049 18.569441 9.4711432 19.259766 11.818359 19.259766 C 13.033634 19.259766 14.140628 19.041014 15.140625 18.603516 C 16.411455 19.45768 17.096137 19.910373 17.193359 19.958984 C 17.637803 20.202039 18.091364 20.392361 18.556641 20.53125 L 19.693359 18.353516 C 18.804473 18.034072 17.981552 17.604165 17.224609 17.0625 C 17.835719 16.347224 18.278864 15.607637 18.556641 14.84375 C 18.924695 13.843753 19.109375 12.684675 19.109375 11.365234 C 19.109375 8.8721853 18.445526 6.9346753 17.119141 5.5527344 C 15.792755 4.1638491 13.998258 3.46875 11.734375 3.46875 z M 11.712891 6.1035156 C 12.969832 6.1035156 13.987849 6.5410179 14.765625 7.4160156 C 15.543401 8.2840689 15.931641 9.60135 15.931641 11.365234 C 15.931641 12.219399 15.832248 12.975045 15.630859 13.634766 C 15.436415 14.294486 15.139973 14.856989 14.744141 15.322266 C 13.820532 14.627823 12.851777 14.106987 11.837891 13.759766 L 10.974609 15.521484 C 11.620441 15.75065 12.255861 16.068794 12.880859 16.478516 C 12.485027 16.624349 12.063584 16.697266 11.619141 16.697266 C 10.424699 16.697266 9.4351108 16.256942 8.6503906 15.375 C 7.8726149 14.486113 7.484375 13.149952 7.484375 11.365234 C 7.484375 9.6082945 7.8726149 8.2910134 8.6503906 7.4160156 C 9.4351108 6.5410179 10.455949 6.1035156 11.712891 6.1035156 z " />
</svg>