<svg xmlns="http://www.w3.org/2000/svg" viewBox="0 0 24 24">
    <path d="M 11.328125 4.2402344 C 9.9947951 4.2402344 8.8773848 4.740237 7.9746094 5.7402344 C 7.0787784 6.7332874 6.6308594 8.1187112 6.6308594 9.8964844 C 6.6308594 11.785368 7.1100285 13.280602 8.0683594 14.384766 C 8.8808573 15.329208 9.9149338 15.802734 11.171875 15.802734 C 11.831596 15.802734 12.446182 15.659721 13.015625 15.375 C 13.585068 15.083334 14.061416 14.69032 14.443359 14.197266 L 14.443359 19.759766 L 17.369141 19.759766 L 17.369141 4.4902344 L 14.671875 4.4902344 L 14.671875 6.125 C 14.255209 5.4930572 13.77604 5.0214836 13.234375 4.7089844 C 12.699654 4.3964852 12.064234 4.2402344 11.328125 4.2402344 z M 12.109375 6.53125 C 12.803818 6.53125 13.379558 6.8096803 13.837891 7.3652344 C 14.303167 7.9138441 14.537109 8.7528241 14.537109 9.8847656 C 14.537109 11.079207 14.282334 11.979819 13.775391 12.583984 C 13.268447 13.188149 12.679469 13.490234 12.005859 13.490234 C 11.33225 13.490234 10.764973 13.222221 10.306641 12.6875 C 9.8483085 12.145835 9.6191406 11.268009 9.6191406 10.052734 C 9.6191406 8.8305153 9.855904 7.9374985 10.328125 7.375 C 10.80729 6.8125015 11.401043 6.53125 12.109375 6.53125 z " />
</svg>