<svg xmlns="http://www.w3.org/2000/svg" viewBox="0 0 24 24">
    <path d="M 5.1347656 4.3652344 L 5.1347656 19.634766 L 8.21875 19.634766 L 8.21875 13.259766 L 8.84375 13.259766 C 9.5520815 13.259766 10.070096 13.319445 10.396484 13.4375 C 10.722872 13.548611 11.0306 13.759766 11.322266 14.072266 C 11.613932 14.37782 12.155601 15.125003 12.947266 16.3125 L 15.177734 19.634766 L 18.865234 19.634766 L 17 16.65625 C 16.263891 15.468753 15.677733 14.643011 15.240234 14.177734 C 14.80968 13.712458 14.260415 13.285372 13.59375 12.896484 C 14.934024 12.70204 15.941625 12.233288 16.615234 11.490234 C 17.288844 10.740236 17.625 9.7923148 17.625 8.6464844 C 17.625 7.7437089 17.403428 6.9416215 16.958984 6.2402344 C 16.514541 5.5388473 15.920788 5.0520826 15.177734 4.78125 C 14.441625 4.5034729 13.25694 4.3652344 11.625 4.3652344 L 5.1347656 4.3652344 z M 8.21875 6.9472656 L 10.625 6.9472656 C 11.874997 6.9472656 12.625001 6.9652779 12.875 7 C 13.374999 7.0833331 13.760417 7.284072 14.03125 7.6035156 C 14.309027 7.9160148 14.447266 8.3298624 14.447266 8.84375 C 14.447266 9.3020822 14.343098 9.6846796 14.134766 9.9902344 C 13.926433 10.295789 13.639539 10.509766 13.271484 10.634766 C 12.90343 10.759765 11.979163 10.822266 10.5 10.822266 L 8.21875 10.822266 L 8.21875 6.9472656 z " />
</svg>