<svg xmlns="http://www.w3.org/2000/svg" viewBox="0 0 24 24">
    <path d="M 11.916016 4.0996094 C 10.742408 4.0996094 9.7395812 4.2766936 8.90625 4.6308594 C 8.0798632 4.9850251 7.4444433 5.5010868 7 6.1816406 C 6.5625011 6.85525 6.34375 7.5815992 6.34375 8.359375 C 6.34375 9.5677052 6.8125024 10.591365 7.75 11.431641 C 8.4166649 12.028861 9.5757421 12.533638 11.228516 12.943359 C 12.513235 13.262803 13.336155 13.484375 13.697266 13.609375 C 14.225042 13.796875 14.594402 14.018447 14.802734 14.275391 C 15.018012 14.52539 15.125 14.832249 15.125 15.193359 C 15.125 15.755858 14.872178 16.248265 14.365234 16.671875 C 13.865236 17.088541 13.118053 17.296875 12.125 17.296875 C 11.187502 17.296875 10.44032 17.060112 9.8847656 16.587891 C 9.3361559 16.11567 8.9715707 15.376082 8.7910156 14.369141 L 5.7910156 14.662109 C 5.992404 16.370438 6.6117648 17.672528 7.6464844 18.568359 C 8.6812039 19.457246 10.163199 19.900391 12.09375 19.900391 C 13.420135 19.900391 14.527129 19.717664 15.416016 19.349609 C 16.304902 18.97461 16.992406 18.404512 17.478516 17.640625 C 17.964625 16.876738 18.208984 16.056638 18.208984 15.181641 C 18.208984 14.216365 18.003471 13.408635 17.59375 12.755859 C 17.190973 12.096139 16.62847 11.578124 15.90625 11.203125 C 15.190974 10.821182 14.083981 10.453775 12.583984 10.099609 C 11.083988 9.7454436 10.138888 9.404513 9.75 9.078125 C 9.4444452 8.8211812 9.2910156 8.5115008 9.2910156 8.1503906 C 9.2910156 7.7545583 9.454862 7.4392355 9.78125 7.203125 C 10.288193 6.8350704 10.988935 6.6503906 11.884766 6.6503906 C 12.752819 6.6503906 13.40343 6.8246537 13.833984 7.171875 C 14.271483 7.5121519 14.555556 8.0746548 14.6875 8.859375 L 17.771484 8.7246094 C 17.722873 7.3218352 17.212454 6.1996506 16.240234 5.359375 C 15.274959 4.5190994 13.832677 4.0996094 11.916016 4.0996094 z " />
</svg>