<svg xmlns="http://www.w3.org/2000/svg" viewBox="0 0 24 24">
    <path d="M 11.896484 6.21875 C 10.306211 6.21875 9.1319425 6.5444895 8.375 7.1972656 C 7.6180575 7.8500417 7.2402344 8.6569035 7.2402344 9.6152344 C 7.2402344 10.677732 7.6777366 11.506295 8.5527344 12.103516 C 9.1846772 12.53407 10.679911 13.010418 13.041016 13.53125 C 13.547959 13.649305 13.875651 13.777127 14.021484 13.916016 C 14.160373 14.061849 14.228516 14.246528 14.228516 14.46875 C 14.228516 14.795138 14.100694 15.055556 13.84375 15.25 C 13.461807 15.527777 12.891708 15.666016 12.134766 15.666016 C 11.447267 15.666016 10.913193 15.520182 10.53125 15.228516 C 10.149307 14.929905 9.8964841 14.497177 9.7714844 13.927734 L 6.8339844 14.375 C 7.104817 15.423608 7.6777366 16.254125 8.5527344 16.865234 C 9.4346765 17.476344 10.627825 17.78125 12.134766 17.78125 C 13.794484 17.78125 15.049264 17.416665 15.896484 16.6875 C 16.743704 15.958335 17.166016 15.086152 17.166016 14.072266 C 17.166016 13.141712 16.86111 12.417316 16.25 11.896484 C 15.631946 11.382597 14.541012 10.947916 12.978516 10.59375 C 11.422964 10.239584 10.513888 9.9659283 10.25 9.7714844 C 10.055556 9.6256514 9.9589844 9.4485672 9.9589844 9.2402344 C 9.9589844 8.9971794 10.068794 8.7992618 10.291016 8.6464844 C 10.624348 8.4312072 11.176434 8.3222656 11.947266 8.3222656 C 12.558375 8.3222656 13.027128 8.4368495 13.353516 8.6660156 C 13.686848 8.8951817 13.913195 9.2256956 14.03125 9.65625 L 16.791016 9.1464844 C 16.513239 8.1812091 16.007594 7.4520387 15.271484 6.9589844 C 14.535375 6.4659301 13.410369 6.21875 11.896484 6.21875 z " />
</svg>