<svg xmlns="http://www.w3.org/2000/svg" viewBox="0 0 24 24">
    <path d="M 13.021484 4.390625 L 10.083984 6.0996094 L 10.083984 8.296875 L 8.7402344 8.296875 L 8.7402344 10.630859 L 10.083984 10.630859 L 10.083984 15.453125 C 10.083984 16.487845 10.115235 17.175348 10.177734 17.515625 C 10.254123 17.99479 10.38954 18.377388 10.583984 18.662109 C 10.785373 18.939886 11.097874 19.169054 11.521484 19.349609 C 11.945094 19.52322 12.419489 19.609375 12.947266 19.609375 C 13.808375 19.609375 14.579212 19.463541 15.259766 19.171875 L 15.009766 16.900391 C 14.495878 17.08789 14.104817 17.181641 13.833984 17.181641 C 13.63954 17.181641 13.472873 17.134331 13.333984 17.037109 C 13.20204 16.939887 13.113932 16.817708 13.072266 16.671875 C 13.037543 16.519098 13.021484 15.990666 13.021484 15.087891 L 13.021484 10.630859 L 15.021484 10.630859 L 15.021484 8.296875 L 13.021484 8.296875 L 13.021484 4.390625 z " />
</svg>