<svg xmlns="http://www.w3.org/2000/svg" viewBox="0 0 24 24">
    <path d="M 5.9121094 4.234375 L 5.9121094 12.380859 C 5.9121094 14.089188 6.0115023 15.380862 6.2128906 16.255859 C 6.3517792 16.846136 6.6406261 17.41146 7.078125 17.953125 C 7.5156239 18.487846 8.1093769 18.925348 8.859375 19.265625 C 9.6163175 19.598957 10.723311 19.765625 12.181641 19.765625 C 13.389971 19.765625 14.369143 19.612195 15.119141 19.306641 C 15.869139 18.994141 16.467666 18.577473 16.912109 18.056641 C 17.363497 17.535809 17.671224 16.897567 17.837891 16.140625 C 18.004557 15.383683 18.087891 14.089188 18.087891 12.255859 L 18.087891 4.234375 L 15.005859 4.234375 L 15.005859 12.681641 C 15.005859 13.889971 14.959418 14.754559 14.869141 15.275391 C 14.778863 15.796223 14.512803 16.238499 14.068359 16.599609 C 13.623916 16.953775 12.962888 17.130859 12.087891 17.130859 C 11.226782 17.130859 10.546874 16.943358 10.046875 16.568359 C 9.5538207 16.186416 9.2413191 15.681639 9.109375 15.056641 C 9.0329863 14.667753 8.9941406 13.818356 8.9941406 12.505859 L 8.9941406 4.234375 L 5.9121094 4.234375 z " />
</svg>