<svg xmlns="http://www.w3.org/2000/svg" viewBox="0 0 24 24">
    <path d="M 6.96875 6.34375 L 6.96875 13.34375 C 6.96875 14.385414 7.1013462 15.200739 7.3652344 15.791016 C 7.6291226 16.381292 8.0562081 16.839628 8.6464844 17.166016 C 9.2367606 17.492404 9.9034307 17.65625 10.646484 17.65625 C 11.375649 17.65625 12.065974 17.486761 12.71875 17.146484 C 13.378471 16.806207 13.909723 16.340276 14.3125 15.75 L 14.3125 17.40625 L 17.03125 17.40625 L 17.03125 6.34375 L 14.103516 6.34375 L 14.103516 11.009766 C 14.103516 12.593095 14.030599 13.590279 13.884766 14 C 13.738933 14.402777 13.468098 14.743707 13.072266 15.021484 C 12.676433 15.292317 12.228514 15.427734 11.728516 15.427734 C 11.291017 15.427734 10.931206 15.326388 10.646484 15.125 C 10.361763 14.916667 10.163845 14.638237 10.052734 14.291016 C 9.948568 13.93685 9.8964844 12.983286 9.8964844 11.427734 L 9.8964844 6.34375 L 6.96875 6.34375 z " />
</svg>