<svg xmlns="http://www.w3.org/2000/svg" viewBox="0 0 24 24">
    <path d="M 6.3125 4.2246094 L 10.521484 15.318359 C 10.347874 15.936413 10.097872 16.442058 9.7714844 16.837891 C 9.4450963 17.240667 8.9403194 17.443359 8.2597656 17.443359 C 7.891711 17.443359 7.4798165 17.396918 7.0214844 17.306641 L 7.28125 19.599609 C 7.8229153 19.717665 8.3750015 19.775391 8.9375 19.775391 C 9.4930541 19.775391 9.9902355 19.717665 10.427734 19.599609 C 10.872178 19.481554 11.242405 19.314887 11.541016 19.099609 C 11.84657 18.891277 12.114584 18.615668 12.34375 18.275391 C 12.579861 17.935114 12.827041 17.442707 13.083984 16.796875 L 13.78125 14.869141 L 17.6875 4.2246094 L 14.65625 4.2246094 L 12.072266 12.078125 L 9.4277344 4.2246094 L 6.3125 4.2246094 z " />
</svg>