<?xml version="1.0" encoding="utf-8"?>
<!-- Svg Vector Icons : http://www.onlinewebfonts.com/icon -->
<!DOCTYPE svg PUBLIC "-//W3C//DTD SVG 1.1//EN" "http://www.w3.org/Graphics/SVG/1.1/DTD/svg11.dtd">
<svg version="1.1" xmlns="http://www.w3.org/2000/svg" xmlns:xlink="http://www.w3.org/1999/xlink" x="0px" y="0px" viewBox="0 0 1000 1000" enable-background="new 0 0 1000 1000" xml:space="preserve">
<metadata> Svg Vector Icons : http://www.onlinewebfonts.com/icon </metadata>
<g><path d="M515.4,850.5L479.3,873V529.3l302.3-192.6v144.6c27.7,4.4,54,13.3,78,25.9v-246L448.8,10L38,261.1v480.3L448.8,990L567,918.5C546.2,899,528.7,876,515.4,850.5z M411,873L108.7,685.3V336.6L411,529.3L411,873L411,873z M146.5,266l302.3-156l293.7,168.2L448.8,453.7L146.5,266z"/><path d="M741.4,512.2c-121.8,0-220.6,98.8-220.6,220.6c0,121.8,98.8,220.6,220.6,220.6c121.8,0,220.6-98.8,220.6-220.6C962,611,863.2,512.2,741.4,512.2z M876.7,764.5H773.1v103.6h-63.4V764.5H606.1v-63.4h103.6V597.5h63.4v103.6h103.6V764.5z"/></g>
</svg>