<?xml version="1.0" encoding="UTF-8" standalone="no"?>
<svg xmlns:dc="http://purl.org/dc/elements/1.1/" xmlns:cc="http://creativecommons.org/ns#" xmlns:rdf="http://www.w3.org/1999/02/22-rdf-syntax-ns#" xmlns:svg="http://www.w3.org/2000/svg" xmlns="http://www.w3.org/2000/svg" xmlns:sodipodi="http://sodipodi.sourceforge.net/DTD/sodipodi-0.dtd" xmlns:inkscape="http://www.inkscape.org/namespaces/inkscape" viewBox="0 -256 1950 1950" id="svg3013" version="1.1" inkscape:version="0.48.3.1 r9886" width="100%" height="100%" sodipodi:docname="folder_open_font_awesome.svg">
  <metadata id="metadata3023">
    <rdf:RDF>
      <cc:Work rdf:about="">
        <dc:format>image/svg+xml</dc:format>
        <dc:type rdf:resource="http://purl.org/dc/dcmitype/StillImage"/>
      </cc:Work>
    </rdf:RDF>
  </metadata>
  <defs id="defs3021"/>
  <sodipodi:namedview pagecolor="#ffffff" bordercolor="#666666" borderopacity="1" objecttolerance="10" gridtolerance="10" guidetolerance="10" inkscape:pageopacity="0" inkscape:pageshadow="2" inkscape:window-width="640" inkscape:window-height="480" id="namedview3019" showgrid="false" inkscape:zoom="0.13169643" inkscape:cx="939.5" inkscape:cy="896" inkscape:window-x="0" inkscape:window-y="25" inkscape:window-maximized="0" inkscape:current-layer="svg3013"/>
  <g transform="matrix(1,0,0,-1,60.745763,1405.4576)" id="g3015">
    <path d="m 1879,584 q 0,-31 -31,-66 L 1512,122 Q 1469,71 1391.5,35.5 1314,0 1248,0 H 160 Q 126,0 99.5,13 73,26 73,56 q 0,31 31,66 l 336,396 q 43,51 120.5,86.5 Q 638,640 704,640 h 1088 q 34,0 60.5,-13 26.5,-13 26.5,-43 z M 1536,928 V 768 H 704 Q 610,768 507,720.5 404,673 343,601 L 6,205 1,199 Q 1,203 0.5,211.5 0,220 0,224 v 960 q 0,92 66,158 66,66 158,66 h 320 q 92,0 158,-66 66,-66 66,-158 v -32 h 544 q 92,0 158,-66 66,-66 66,-158 z" id="path3017" inkscape:connector-curvature="0" style="fill:currentColor"/>
  </g>
</svg>