<svg xmlns="http://www.w3.org/2000/svg" viewBox="0 0 24 24">
    <path d="M 5.3710938 1.4707031 C 5.1568782 1.4722321 4.9407809 1.4760457 4.7207031 1.4824219 A 0.28638765 0.28638765 0 0 0 4.7167969 1.484375 C 4.1363319 1.510715 3.5071379 1.605877 3.0078125 1.7402344 C 2.7581498 1.8074133 2.5418372 1.8823699 2.3671875 1.9765625 C 2.2798626 2.0236585 2.2027131 2.0743796 2.1328125 2.1484375 C 2.0654776 2.2197774 2.0036495 2.332359 2.0058594 2.4667969 C 2.0079894 2.6351093 2.1103383 2.7805484 2.21875 2.8613281 C 2.329913 2.944158 2.4559987 2.9981978 2.6074219 3.0488281 C 2.9102682 3.1500888 3.3179989 3.2299593 3.8359375 3.3164062 C 4.8718148 3.4892999 6.341928 3.6765162 8.1289062 3.984375 C 11.702862 4.6000927 16.537834 5.6996031 21.595703 8.1230469 A 0.28638765 0.28638765 0 0 0 21.876953 7.6269531 C 15.914052 3.6942733 12.011775 1.4233062 5.3710938 1.4707031 z M 5.6582031 8.5917969 C 5.4439876 8.5933295 5.2278903 8.5971395 5.0078125 8.6035156 A 0.28638765 0.28638765 0 0 0 5.0019531 8.6035156 C 4.4214843 8.6298526 3.7942473 8.7269709 3.2949219 8.8613281 C 3.0452591 8.9285071 2.8289466 9.0034635 2.6542969 9.0976562 C 2.566972 9.1447522 2.4878694 9.1954733 2.4179688 9.2695312 C 2.3506378 9.3408662 2.2907675 9.453464 2.2929688 9.5878906 C 2.2950987 9.7562031 2.3974477 9.9016422 2.5058594 9.9824219 C 2.6170224 10.065252 2.743108 10.119291 2.8945312 10.169922 C 3.1973775 10.271183 3.6051082 10.351053 4.1230469 10.4375 C 5.1589241 10.610394 6.6270843 10.79761 8.4140625 11.105469 C 11.988018 11.721186 16.822991 12.820697 21.880859 15.244141 A 0.2864676 0.2864676 0 0 0 22.164062 14.746094 C 16.201162 10.813413 12.298885 8.5442854 5.6582031 8.5917969 z M 5.6582031 15.464844 C 5.4439876 15.466376 5.2278903 15.470186 5.0078125 15.476562 A 0.28638765 0.28638765 0 0 0 5.0019531 15.476562 C 4.4214839 15.502902 3.7942474 15.598064 3.2949219 15.732422 C 3.0452591 15.799602 2.8289466 15.874557 2.6542969 15.96875 C 2.566972 16.01585 2.4878694 16.06657 2.4179688 16.140625 C 2.3506238 16.211975 2.2907392 16.326475 2.2929688 16.460938 C 2.2950987 16.62925 2.3974477 16.774689 2.5058594 16.855469 C 2.6170224 16.938299 2.743108 16.990385 2.8945312 17.041016 C 3.1973776 17.142276 3.6051082 17.2241 4.1230469 17.310547 C 5.1589242 17.483441 6.6270844 17.670657 8.4140625 17.978516 C 11.988018 18.594233 16.822991 19.693744 21.880859 22.117188 A 0.28646758 0.28646758 0 0 0 22.164062 21.619141 C 16.201162 17.68646 12.298885 15.417332 5.6582031 15.464844 z " />
</svg>