<svg xmlns="http://www.w3.org/2000/svg" viewBox="0 0 24 24">
    <path d="m 5.3710938,22.153905 c -0.2142156,-0.0015 -0.4303129,-0.0053 -0.6503907,-0.01172 a 0.28638765,0.28638765 0 0 1 -0.00391,-0.002 c -0.580465,-0.02634 -1.209659,-0.121502 -1.7089844,-0.25586 -0.2496627,-0.06718 -0.4659753,-0.142135 -0.640625,-0.236328 -0.087325,-0.0471 -0.1644744,-0.09782 -0.234375,-0.171875 -0.067335,-0.07134 -0.129163,-0.183921 -0.1269531,-0.318359 0.00213,-0.168313 0.1044789,-0.313752 0.2128906,-0.394531 0.111163,-0.08283 0.2372487,-0.13687 0.3886719,-0.1875 0.3028463,-0.101261 0.710577,-0.181132 1.2285156,-0.267578 1.0358773,-0.172894 2.5059905,-0.36011 4.2929687,-0.667969 3.5739558,-0.615718 8.4089278,-1.715228 13.4667968,-4.138672 a 0.28638765,0.28638765 0 0 1 0.28125,0.496094 c -5.962901,3.932679 -9.865178,6.203647 -16.5058592,6.15625 z m 0.2871093,-7.121094 c -0.2142155,-0.0015 -0.4303128,-0.0053 -0.6503906,-0.01172 a 0.28638765,0.28638765 0 0 1 -0.00586,0 C 4.4214843,14.994755 3.7942473,14.897637 3.2949219,14.76328 3.0452591,14.696101 2.8289466,14.621144 2.6542969,14.526952 c -0.087325,-0.0471 -0.1664275,-0.09782 -0.2363281,-0.171875 -0.067331,-0.07133 -0.1272013,-0.183933 -0.125,-0.31836 0.00213,-0.168312 0.1044789,-0.313751 0.2128906,-0.394531 0.111163,-0.08283 0.2372486,-0.136869 0.3886718,-0.1875 0.3028463,-0.101261 0.710577,-0.181131 1.2285157,-0.267578 1.0358772,-0.172894 2.5040374,-0.36011 4.2910156,-0.667969 3.5739555,-0.615717 8.4089285,-1.715228 13.4667965,-4.1386722 a 0.2864676,0.2864676 0 0 1 0.283203,0.498047 c -5.9629,3.9326812 -9.865177,6.2018082 -16.5058589,6.1542972 z m 0,-6.8730472 C 5.4439876,8.1582318 5.2278903,8.1544218 5.0078125,8.1480458 a 0.28638765,0.28638765 0 0 1 -0.00586,0 c -0.5804692,-0.02634 -1.2077057,-0.121502 -1.7070312,-0.25586 -0.2496628,-0.06718 -0.4659753,-0.142135 -0.640625,-0.236328 -0.087325,-0.0471 -0.1664275,-0.09782 -0.2363281,-0.171875 -0.067345,-0.07135 -0.1272296,-0.18585 -0.125,-0.320313 0.00213,-0.168312 0.1044789,-0.313751 0.2128906,-0.394531 0.111163,-0.08283 0.2372486,-0.134916 0.3886718,-0.185547 0.3028464,-0.10126 0.710577,-0.183084 1.2285157,-0.269531 1.0358773,-0.172894 2.5040375,-0.36011 4.2910156,-0.667969 3.5739555,-0.615717 8.4089285,-1.715228 13.4667965,-4.138672 a 0.2864676,0.2864676 0 0 1 0.283203,0.498047 c -5.9629,3.932681 -9.865177,6.201809 -16.5058589,6.154297 z"/>
</svg>