<svg viewBox="0 0 24 24" xmlns="http://www.w3.org/2000/svg">
   <path d="M 5.7519531 2.1308594 L 5.6035156 2.53125 C 5.6035156 2.53125 5.3819372 3.1306598 5.15625 3.7421875 C 5.0434064 4.0479514 4.9295466 4.3569871 4.8417969 4.5957031 C 4.7540472 4.8344192 4.7067096 4.9573835 4.6796875 5.0390625 C 4.7014897 4.9731611 4.6708851 5.0599203 4.6425781 5.125 C 4.6142713 5.1900797 4.5739488 5.279793 4.5273438 5.3847656 C 4.4341338 5.5947108 4.3121481 5.8678613 4.1914062 6.1367188 C 3.9499227 6.6744337 3.7128906 7.1992188 3.7128906 7.1992188 L 2.8027344 8.8652344 L 1.8847656 10.183594 L 0.6328125 11.480469 L 5.5019531 16.363281 L 10.044922 18.800781 L 18.859375 22.353516 L 19.019531 21.970703 L 19.976562 19.673828 L 20.822266 16.978516 L 21.617188 14 L 22.394531 10.517578 L 23.322266 5.84375 L 20.808594 6.3476562 L 20.595703 6.3359375 L 20.59375 6.3339844 L 20.591797 6.3359375 L 19.023438 6.2539062 L 17.1875 5.875 L 12.78125 4.5371094 L 10.634766 3.796875 L 8.3867188 3.15625 L 5.7519531 2.1308594 z M 6.2421875 3.2207031 L 7.7675781 3.8144531 L 7.0703125 6.2246094 L 5.5292969 5.1601562 C 5.555343 5.0882185 5.571299 5.0414814 5.6289062 4.8847656 C 5.7164166 4.6467003 5.8305806 4.3368383 5.9433594 4.03125 C 6.0945979 3.6214501 6.160128 3.4426802 6.2421875 3.2207031 z M 6.8632812 3.5957031 L 6.8125 3.6464844 L 6.6464844 3.8125 L 6.8632812 4.0292969 L 7.0800781 3.8125 L 6.8632812 3.5957031 z M 8.4707031 4.0507812 L 10.015625 4.4921875 L 9.7929688 5.2851562 L 9.4824219 4.9746094 L 9.4082031 5.0488281 L 9.1679688 5.2890625 L 9.4824219 5.6015625 L 9.7890625 5.296875 L 9.3046875 7.0253906 L 8.5722656 6.8144531 L 8.7773438 6.609375 L 8.4414062 6.2734375 L 8.3613281 6.3535156 L 8.1035156 6.609375 L 8.203125 6.7089844 L 7.7382812 6.5761719 L 8.4707031 4.0507812 z M 10.720703 4.7128906 L 12.232422 5.2363281 L 11.810547 6.8515625 L 11.441406 6.4824219 L 11.349609 6.5742188 L 11.058594 6.8652344 L 11.441406 7.2480469 L 11.798828 6.890625 L 11.552734 7.828125 L 10.007812 7.2578125 L 10.066406 7.0449219 L 10.294922 7.2734375 L 10.654297 6.9140625 L 10.294922 6.5566406 L 10.210938 6.640625 L 10.167969 6.6835938 L 10.720703 4.7128906 z M 11.441406 5.0019531 L 11.361328 5.0820312 L 11.103516 5.3398438 L 11.441406 5.6757812 L 11.777344 5.3398438 L 11.441406 5.0019531 z M 8.390625 5.0527344 L 8.3222656 5.1210938 L 8.1035156 5.3398438 L 8.390625 5.625 L 8.6757812 5.3398438 L 8.390625 5.0527344 z M 6.8632812 5.0761719 L 6.8027344 5.1386719 L 6.6015625 5.3398438 L 6.8632812 5.6015625 L 7.1269531 5.3398438 L 6.8632812 5.0761719 z M 13.400391 5.6015625 L 14.417969 5.9101562 L 14.244141 6.5898438 L 13.957031 6.3027344 L 13.853516 6.40625 L 13.523438 6.7363281 L 13.957031 7.1699219 L 14.144531 6.9824219 L 13.726562 8.6308594 L 13.328125 8.484375 L 13.421875 8.390625 L 12.964844 7.9335938 L 12.855469 8.0410156 L 12.660156 8.2382812 L 12.25 8.0859375 L 12.566406 6.8769531 L 12.964844 7.2753906 L 13.376953 6.8632812 L 12.966797 6.453125 L 12.869141 6.5527344 L 12.576172 6.8457031 L 12.855469 5.7753906 L 13.072266 5.9921875 L 13.431641 5.6328125 L 13.400391 5.6015625 z M 5.2753906 5.7636719 L 6.8730469 6.8671875 L 6.1679688 8.8789062 L 4.5507812 7.3789062 C 4.6086093 7.2509071 4.7526619 6.9335879 4.9570312 6.4785156 C 5.0717483 6.2230736 5.1835824 5.9704848 5.2753906 5.7636719 z M 15.126953 6.125 L 16.574219 6.5644531 L 16.173828 8.0390625 L 16.015625 7.8808594 L 15.896484 8.0019531 L 15.509766 8.3886719 L 15.957031 8.8359375 L 15.845703 9.2441406 L 14.431641 8.8554688 L 14.441406 8.8164062 L 14.492188 8.8671875 L 14.970703 8.3886719 L 14.636719 8.0546875 L 15.126953 6.125 z M 16.017578 6.4082031 L 15.908203 6.5175781 L 15.560547 6.8652344 L 16.015625 7.3203125 L 16.472656 6.8632812 L 16.017578 6.4082031 z M 5.3398438 6.5800781 L 5.2714844 6.6464844 L 5.0527344 6.8652344 L 5.3378906 7.1503906 L 5.6230469 6.8632812 L 5.3398438 6.5800781 z M 6.4570312 6.6796875 L 6.3828125 6.7539062 L 6.1445312 6.9921875 L 6.4570312 7.3066406 L 6.7714844 6.9921875 L 6.4570312 6.6796875 z M 17.990234 6.8964844 L 18.515625 7.0058594 L 17.929688 9.7246094 L 17.542969 9.3378906 L 17.40625 9.4746094 L 17.25 9.6308594 L 16.558594 9.4414062 L 17.216797 7.0175781 L 17.542969 7.34375 L 17.990234 6.8964844 z M 22.255859 6.9121094 L 22.074219 7.828125 L 21.974609 7.9277344 L 21.513672 8.390625 L 21.888672 8.765625 L 21.822266 9.0976562 L 21.660156 8.9355469 L 21.507812 9.0878906 L 21.011719 9.5839844 L 21.574219 10.146484 L 20.867188 10.267578 L 21.220703 9.9140625 L 20.71875 9.4121094 L 20.871094 8.6074219 L 20.898438 8.6347656 L 21.474609 8.0585938 L 21.054688 7.6386719 L 21.150391 7.1328125 L 22.255859 6.9121094 z M 19.330078 7.109375 L 20.359375 7.1621094 L 20.386719 7.1894531 L 19.791016 10.330078 L 19.373047 10.214844 L 19.671875 9.9160156 L 19.066406 9.3105469 L 18.923828 9.4550781 L 18.695312 9.6835938 L 18.892578 8.7675781 L 19.068359 8.9433594 L 19.621094 8.390625 L 19.087891 7.8574219 L 19.226562 7.2128906 L 19.330078 7.109375 z M 7.5449219 7.1875 L 9.1113281 7.6367188 L 8.4609375 9.5507812 L 8.390625 9.4804688 L 8.2871094 9.5839844 L 8.0761719 9.7949219 L 6.8007812 9.3105469 L 7.0351562 8.6386719 L 7.296875 8.9003906 L 7.6542969 8.5410156 L 7.296875 8.1835938 L 7.2109375 8.2675781 L 7.1425781 8.3359375 L 7.5449219 7.1875 z M 5.8984375 7.6464844 L 5.8183594 7.7265625 L 5.5625 7.984375 L 5.8964844 8.3203125 L 6.234375 7.9824219 L 5.8984375 7.6464844 z M 17.542969 7.8574219 L 17.416016 7.984375 L 17.011719 8.3886719 L 17.542969 8.9199219 L 18.074219 8.390625 L 17.542969 7.8574219 z M 9.8144531 7.8691406 L 11.375 8.4472656 L 11.265625 8.7871094 L 10.882812 8.4042969 L 10.779297 8.5078125 L 10.449219 8.8378906 L 10.882812 9.2734375 L 11.214844 8.9394531 L 10.625 10.757812 L 9.0371094 10.158203 L 9.6035156 8.4882812 L 9.9160156 8.8007812 L 10.326172 8.390625 L 9.9140625 7.9785156 L 9.8164062 8.0761719 L 9.7070312 8.1855469 L 9.8144531 7.8691406 z M 4.2949219 7.8808594 L 5.96875 9.4335938 L 5.2871094 10.771484 L 3.6230469 9.1113281 L 4.2949219 7.8808594 z M 8.390625 8.0097656 L 8.3007812 8.0976562 L 8.0097656 8.390625 L 8.390625 8.7714844 L 8.7714844 8.390625 L 8.390625 8.0097656 z M 4.3476562 8.5605469 L 4.2734375 8.6347656 L 4.0332031 8.8730469 L 4.3476562 9.1875 L 4.6601562 8.8730469 L 4.3476562 8.5605469 z M 12.068359 8.703125 L 13.5625 9.2558594 L 13.378906 9.8203125 L 12.964844 9.4082031 L 12.845703 9.5273438 L 12.458984 9.9140625 L 12.966797 10.423828 L 13.287109 10.103516 L 13.017578 10.931641 L 12.966797 10.880859 L 12.832031 11.015625 L 12.451172 11.398438 L 11.654297 11.125 L 11.441406 10.910156 L 11.335938 11.013672 L 11.320312 11.009766 L 12.068359 8.703125 z M 9.9140625 9.453125 L 9.8046875 9.5625 L 9.453125 9.9140625 L 9.9160156 10.376953 L 10.376953 9.9160156 L 9.9140625 9.453125 z M 14.269531 9.4746094 L 14.373047 9.5039062 L 14.365234 9.5117188 L 14.205078 9.6699219 L 14.269531 9.4746094 z M 5.1953125 9.515625 L 5.1035156 9.6074219 L 4.8125 9.8984375 L 5.1933594 10.279297 L 5.5761719 9.8964844 L 5.1953125 9.515625 z M 3.3261719 9.5820312 L 3.6289062 9.8847656 L 3.6230469 9.890625 L 3.3457031 10.167969 L 3.7128906 10.535156 L 3.9960938 10.25 L 5.0195312 11.271484 L 4.9257812 11.421875 L 4.90625 11.441406 L 4.9101562 11.445312 L 4.4003906 12.261719 L 3.9882812 11.855469 L 4.3554688 11.488281 L 3.9433594 11.076172 L 3.8457031 11.173828 L 3.5742188 11.445312 L 2.65625 10.541016 L 3.3261719 9.5820312 z M 14.701172 9.59375 L 15.546875 9.8261719 L 15.458984 9.9140625 L 15.611328 10.066406 L 14.945312 12.253906 L 13.523438 11.765625 L 14.085938 10.039062 L 14.492188 10.445312 L 15.021484 9.9140625 L 14.701172 9.59375 z M 6.6035156 9.8164062 L 6.7890625 9.8867188 L 6.5039062 10.169922 L 6.9140625 10.580078 L 7.3261719 10.167969 L 7.1992188 10.041016 L 8.1640625 10.40625 L 7.4980469 12.142578 L 6.9394531 11.826172 L 7.3242188 11.441406 L 6.8632812 10.978516 L 6.7539062 11.087891 L 6.4023438 11.441406 L 6.5839844 11.623047 L 5.8867188 11.226562 L 6.6035156 9.8164062 z M 12.050781 9.9160156 L 11.9375 10.03125 L 11.566406 10.400391 L 12.050781 10.884766 L 12.535156 10.400391 L 12.050781 9.9160156 z M 16.423828 10.068359 L 17.386719 10.333984 L 17.542969 10.490234 L 17.632812 10.400391 L 17.751953 10.433594 L 17.623047 10.894531 L 17.542969 10.814453 L 17.392578 10.962891 L 16.916016 11.441406 L 17.347656 11.873047 L 17.111328 12.720703 L 16.916016 12.914062 L 16.464844 12.763672 L 16.017578 12.316406 L 15.863281 12.470703 L 15.792969 12.541016 L 15.646484 12.492188 L 15.835938 11.865234 L 16.017578 12.044922 L 16.623047 11.441406 L 16.119141 10.9375 L 16.367188 10.125 L 16.423828 10.068359 z M 18.462891 10.628906 L 19.060547 10.792969 L 18.912109 10.941406 L 18.412109 11.441406 L 19.068359 12.097656 L 19.472656 11.693359 L 19.279297 12.476562 L 19.068359 12.265625 L 18.900391 12.431641 L 18.367188 12.966797 L 19 13.599609 L 18.998047 13.607422 L 17.933594 13.253906 L 18.222656 12.964844 L 17.898438 12.642578 L 18.462891 10.628906 z M 8.8554688 10.667969 L 9.8183594 11.03125 L 9.7949219 11.054688 L 9.4082031 11.441406 L 9.9140625 11.947266 L 10.330078 11.533203 L 9.9453125 12.4375 L 9.9160156 12.408203 L 9.7832031 12.541016 L 9.3574219 12.966797 L 9.4765625 13.085938 L 8.9394531 12.839844 L 9.2441406 12.535156 L 8.7148438 12.003906 L 8.5878906 12.130859 L 8.2148438 12.503906 L 8.1621094 12.480469 L 8.3789062 11.914062 L 8.390625 11.925781 L 8.875 11.441406 L 8.6464844 11.212891 L 8.8554688 10.667969 z M 19.083984 10.800781 L 19.654297 10.957031 L 19.572266 11.289062 L 19.083984 10.800781 z M 21.470703 10.814453 L 21.048828 12.697266 L 20.59375 12.242188 L 20.421875 12.414062 L 19.935547 12.900391 L 20.220703 11.748047 L 20.59375 12.119141 L 21.271484 11.441406 L 20.765625 10.933594 L 21.470703 10.814453 z M 14.492188 10.859375 L 14.353516 10.998047 L 13.910156 11.441406 L 14.492188 12.021484 L 15.072266 11.441406 L 14.492188 10.859375 z M 2.3730469 10.882812 L 4.1367188 12.625 L 3.9355469 12.855469 L 3.609375 12.529297 L 3.5 12.638672 L 3.234375 12.904297 L 1.8066406 11.470703 L 2.3730469 10.882812 z M 2.4921875 11.128906 L 2.3984375 11.220703 L 2.1035156 11.517578 L 2.4921875 11.904297 L 2.8789062 11.517578 L 2.4921875 11.128906 z M 10.136719 11.152344 L 10.443359 11.269531 L 10.386719 11.402344 L 10.136719 11.152344 z M 11.09375 11.625 L 11.441406 11.970703 L 11.699219 11.712891 L 12.644531 12.037109 L 11.84375 13.998047 L 10.324219 13.443359 L 11.09375 11.625 z M 5.6230469 11.701172 L 7.2792969 12.642578 L 7.2050781 12.798828 L 6.8652344 12.458984 L 6.7441406 12.580078 L 6.3574219 12.966797 L 6.8632812 13.474609 L 6.8984375 13.439453 L 6.5898438 14.083984 L 5.5488281 13.242188 L 5.8242188 12.966797 L 5.3398438 12.482422 L 5.2246094 12.597656 L 5.0136719 12.808594 L 4.9589844 12.763672 L 5.6230469 11.701172 z M 13.345703 12.279297 L 14.244141 12.587891 L 13.865234 12.966797 L 14.472656 13.574219 L 14.316406 13.988281 L 13.8125 14.492188 L 14.041016 14.720703 L 14.015625 14.789062 L 13.509766 14.603516 L 13.621094 14.492188 L 12.964844 13.835938 L 12.808594 13.992188 L 12.546875 14.253906 L 12.539062 14.25 L 12.859375 13.464844 L 12.964844 13.570312 L 13.570312 12.964844 L 13.210938 12.605469 L 13.345703 12.279297 z M 11.441406 12.384766 L 11.302734 12.523438 L 10.859375 12.966797 L 11.441406 13.548828 L 12.021484 12.966797 L 11.441406 12.384766 z M 7.9414062 12.976562 L 8.2128906 13.101562 L 7.9199219 13.394531 L 8.4492188 13.923828 L 8.9394531 13.435547 L 9.421875 13.658203 L 8.7421875 15.152344 L 8.4433594 15.021484 L 8.9726562 14.492188 L 8.390625 13.908203 L 8.25 14.048828 L 7.8066406 14.492188 L 8.2578125 14.941406 L 7.2773438 14.515625 L 7.2285156 14.466797 L 7.9414062 12.976562 z M 19.908203 13.005859 L 20.525391 13.623047 L 19.742188 13.677734 L 19.908203 13.005859 z M 15.457031 13.056641 L 16.015625 13.615234 L 16.337891 13.292969 L 16.882812 13.474609 L 16.582031 14.355469 L 16.015625 13.789062 L 15.849609 13.957031 L 15.314453 14.492188 L 16.015625 15.193359 L 16.439453 14.769531 L 16.207031 15.453125 L 16.017578 15.263672 L 15.837891 15.443359 L 15.832031 15.449219 L 14.710938 15.041016 L 14.763672 14.900391 L 15.171875 14.492188 L 14.986328 14.306641 L 15.457031 13.056641 z M 4.6875 13.117188 L 6.3769531 14.482422 L 5.7050781 15.380859 L 5.3417969 15.017578 L 5.8671875 14.492188 L 5.3378906 13.960938 L 5.2128906 14.085938 L 4.8125 14.486328 L 4.1113281 13.783203 L 4.6875 13.117188 z M 20.894531 13.390625 L 20.847656 13.601562 L 20.671875 13.613281 L 20.894531 13.390625 z M 17.582031 13.707031 L 18.720703 14.085938 L 18.314453 14.492188 L 18.632812 14.8125 L 18.267578 15.966797 L 17.542969 15.242188 L 17.359375 15.425781 L 16.933594 15.851562 L 16.859375 15.824219 L 17.1875 14.863281 L 17.542969 15.216797 L 18.267578 14.492188 L 17.556641 13.779297 L 17.582031 13.707031 z M 10.105469 13.941406 L 11.027344 14.277344 L 10.8125 14.492188 L 11.392578 15.070312 L 11.160156 15.619141 L 10.761719 16.017578 L 10.783203 16.039062 L 10.433594 15.886719 L 9.9140625 15.367188 L 9.7597656 15.521484 L 9.7089844 15.572266 L 9.421875 15.447266 L 9.6855469 14.867188 L 9.9140625 15.095703 L 10.519531 14.492188 L 10.0625 14.035156 L 10.105469 13.941406 z M 20.113281 14.195312 L 19.818359 14.490234 L 19.583984 14.255859 L 19.591797 14.232422 L 20.113281 14.195312 z M 19.818359 14.494141 L 20.449219 15.123047 L 20.384766 15.363281 L 20.160156 15.138672 L 19.964844 15.335938 L 19.578125 15.722656 L 19.230469 15.375 L 19.367188 14.945312 L 19.818359 14.494141 z M 12.330078 14.751953 L 12.705078 14.888672 L 12.964844 15.148438 L 13.085938 15.027344 L 13.8125 15.291016 L 13.550781 15.892578 L 12.966797 15.308594 L 12.798828 15.478516 L 12.257812 16.017578 L 12.964844 16.724609 L 13.361328 16.328125 L 13.101562 16.923828 L 12.966797 16.789062 L 12.828125 16.927734 L 11.699219 16.435547 L 12.119141 16.015625 L 11.890625 15.787109 L 12.330078 14.751953 z M 7.3203125 15.019531 L 8.3203125 15.453125 L 8.2402344 15.535156 L 7.7558594 16.017578 L 8.1015625 16.363281 L 7.9160156 16.707031 L 7.1796875 16.3125 L 7.4746094 16.017578 L 6.8632812 15.40625 L 6.71875 15.552734 L 6.3847656 15.886719 L 6.2890625 15.833984 L 6.796875 15.15625 L 6.9902344 15.349609 L 7.3203125 15.019531 z M 14.888672 15.683594 L 15.408203 15.873047 L 15.263672 16.017578 L 15.769531 16.523438 L 15.390625 17.365234 L 15.240234 17.515625 L 14.492188 16.767578 L 14.308594 16.951172 L 13.910156 17.349609 L 13.748047 17.292969 L 14.138672 16.394531 L 14.492188 16.748047 L 15.222656 16.017578 L 14.888672 15.683594 z M 9.2246094 15.845703 L 9.3710938 15.910156 L 9.265625 16.015625 L 9.9160156 16.666016 L 10.279297 16.302734 L 10.765625 16.513672 L 10.361328 17.28125 L 9.9160156 16.835938 L 9.7480469 17.003906 L 9.3007812 17.451172 L 8.9765625 17.277344 L 9.1191406 17.134766 L 8.734375 16.75 L 9.2246094 15.845703 z M 18.21875 16.117188 L 18.160156 16.298828 L 18.070312 16.265625 L 18.21875 16.117188 z M 19.628906 16.261719 L 19.925781 16.558594 L 19.384766 16.505859 L 19.628906 16.261719 z M 16.664062 16.330078 L 17.320312 16.570312 L 17.503906 16.753906 L 17.345703 16.912109 L 16.769531 17.490234 L 16.337891 17.058594 L 16.664062 16.330078 z M 17.646484 16.689453 L 17.988281 16.8125 L 17.896484 17.072266 L 17.580078 16.755859 L 17.646484 16.689453 z M 11.443359 16.808594 L 12.492188 17.263672 L 12.214844 17.542969 L 12.607422 17.935547 L 12.351562 18.433594 L 11.816406 17.898438 L 12.169922 17.542969 L 11.441406 16.8125 L 11.443359 16.808594 z M 18.712891 16.984375 L 18.771484 16.990234 L 18.677734 17.083984 L 18.712891 16.984375 z M 19.429688 17.054688 L 19.90625 17.099609 L 19.802734 17.427734 L 19.429688 17.054688 z M 15.240234 17.568359 L 15.28125 17.609375 L 15.199219 17.792969 L 15.0625 17.746094 L 15.240234 17.568359 z M 16.769531 17.595703 L 17.455078 18.28125 L 17.333984 18.402344 L 17.240234 18.496094 L 16.220703 18.144531 L 16.769531 17.595703 z M 13.5625 17.699219 L 14.037109 17.863281 L 14.453125 18.279297 L 14.294922 18.4375 L 13.716797 19.013672 L 13.166016 18.462891 L 13.552734 17.708984 L 13.5625 17.699219 z M 18.435547 17.759766 L 18.955078 18.279297 L 18.853516 18.380859 L 18.351562 18.880859 L 18.166016 18.816406 L 18.087891 18.738281 L 18.435547 17.759766 z M 19.697266 17.763672 L 19.449219 18.550781 L 19.179688 18.28125 L 19.697266 17.763672 z M 10.9375 17.769531 L 11.310547 18.140625 L 11.119141 18.332031 L 10.726562 18.171875 L 10.9375 17.769531 z M 14.712891 18.095703 L 15.013672 18.199219 L 14.833984 18.582031 L 14.53125 18.277344 L 14.712891 18.095703 z M 15.716797 18.441406 L 15.773438 18.460938 L 15.650391 18.582031 L 15.716797 18.441406 z M 16.515625 18.716797 L 16.890625 18.845703 L 16.767578 18.96875 L 16.515625 18.716797 z M 13.71875 19.121094 L 14.150391 19.552734 L 13.535156 19.304688 L 13.71875 19.121094 z M 16.769531 19.166016 L 16.998047 19.394531 L 16.707031 20.019531 L 16.3125 19.623047 L 16.769531 19.166016 z M 15.339844 19.240234 L 15.748047 19.648438 L 15.357422 20.039062 L 15.025391 19.90625 L 15.339844 19.240234 z M 18.1875 19.294922 L 18.503906 19.402344 L 18.589844 19.488281 L 18.460938 19.617188 L 17.976562 20.103516 L 17.677734 19.804688 L 18.1875 19.294922 z M 18.230469 20.830078 L 18.482422 21.082031 L 18.404297 21.267578 L 17.96875 21.091797 L 18.230469 20.830078 z " />
</svg>
