<svg xmlns="http://www.w3.org/2000/svg" viewBox="0 0 24 24">
  <path d="M 4.4101562 3 L 3 4.4101562 L 7.5 8.9101562 L 3.9101562 8.9101562 L 3.9101562 10.910156 L 9.7851562 10.910156 A 2.4723835 2.4723835 0 0 1 10.910156 9.7851562 L 10.910156 3.9101562 L 8.9101562 3.9101562 L 8.9101562 7.5 L 4.4101562 3 z M 19.589844 3 L 15.089844 7.5 L 15.089844 3.9101562 L 13.089844 3.9101562 L 13.089844 9.7871094 A 2.4723835 2.4723835 0 0 1 14.214844 10.910156 L 20.089844 10.910156 L 20.089844 8.9101562 L 16.5 8.9101562 L 21 4.4101562 L 19.589844 3 z M 11.998047 10.474609 A 1.524699 1.524699 0 0 0 10.474609 12.001953 A 1.524699 1.524699 0 0 0 12 13.525391 A 1.524699 1.524699 0 0 0 13.525391 12 L 12 12 L 13.525391 11.996094 A 1.524699 1.524699 0 0 0 11.998047 10.474609 z M 3.9101562 13.089844 L 3.9101562 15.089844 L 7.5 15.089844 L 3 19.589844 L 4.4101562 21 L 8.9101562 16.5 L 8.9101562 20.089844 L 10.910156 20.089844 L 10.910156 14.214844 A 2.4723835 2.4723835 0 0 1 9.7851562 13.089844 L 3.9101562 13.089844 z M 14.214844 13.089844 A 2.4723835 2.4723835 0 0 1 13.089844 14.214844 L 13.089844 20.089844 L 15.089844 20.089844 L 15.089844 16.5 L 19.589844 21 L 21 19.589844 L 16.5 15.089844 L 20.089844 15.089844 L 20.089844 13.089844 L 14.214844 13.089844 z"/>
</svg>
