<svg xmlns="http://www.w3.org/2000/svg" viewBox="0 0 24 24">
  <path d="M 6,12.45 V 9.64 c 1.47,0.83 3.61,1.36 6,1.36 2.39,0 4.53,-0.53 6,-1.36 v 1.41 C 18.17,11.03 18.33,11 18.5,11 c 0.53,0 1.03,0.1 1.5,0.26 V 7 C 20,4.79 16.42,3 12,3 7.58,3 4,4.79 4,7 v 10 c 0,2.21 3.59,4 8,4 0.34,0 0.67,0 1,-0.03 V 18.95 C 12.68,19 12.35,19 12,19 8.13,19 6,17.5 6,17 v -2.23 c 1.61,0.78 3.72,1.23 6,1.23 0.41,0 0.81,-0.03 1.21,-0.06 0.301933,-1.262522 0.875019,-1.339786 1.13,-2.14 C 13.6,13.93 12.81,14 12,14 9.58,14 7.3,13.4 6,12.45 M 12,5 c 3.87,0 6,1.5 6,2 0,0.5 -2.13,2 -6,2 C 8.13,9 6,7.5 6,7 6,6.5 8.13,5 12,5 m 9,11 V 15.5 C 21,14.12 19.88,13 18.5,13 17.12,13 16,14.12 16,15.5 V 16 c -0.55,0 -1,0.45 -1,1 v 4 c 0,0.55 0.45,1 1,1 h 5 c 0.55,0 1,-0.45 1,-1 v -4 c 0,-0.55 -0.45,-1 -1,-1 m -1,0 h -3 v -0.5 c 0,-0.83 0.67,-1.5 1.5,-1.5 0.83,0 1.5,0.67 1.5,1.5 z"/>
</svg>
