<svg xmlns="http://www.w3.org/2000/svg" viewBox="0 0 24 24">
    <path d="M 7.3027344 2 L 7.3027344 5.8886719 L 9.140625 6.9023438 L 8.7695312 15.076172 L 4 17.136719 L 4 22 L 12 22 L 20 22 L 20 17.136719 L 15.230469 15.076172 L 14.859375 6.9023438 L 16.697266 5.8886719 L 16.697266 2 L 12 2 L 7.3027344 2 z M 8.8515625 3.5371094 L 12 3.5371094 L 15.148438 3.5371094 L 15.148438 4.984375 L 13.269531 6.0214844 L 13.525391 11.646484 A 0.35422793 0.35422793 0 0 0 13.474609 11.832031 A 0.35422793 0.35422793 0 0 0 13.542969 12.035156 L 13.572266 12.691406 A 0.38878679 0.38878679 0 0 0 13.439453 12.988281 A 0.38878679 0.38878679 0 0 0 13.599609 13.296875 L 13.621094 13.773438 A 0.4233456 0.4233456 0 0 0 13.404297 14.144531 A 0.4233456 0.4233456 0 0 0 13.654297 14.527344 L 13.669922 14.869141 A 0.45790443 0.45790443 0 0 0 13.371094 15.300781 A 0.45790443 0.45790443 0 0 0 13.710938 15.740234 L 13.720703 15.953125 A 0.51262254 0.51262254 0 0 0 13.316406 16.458984 A 0.51262254 0.51262254 0 0 0 13.832031 16.964844 A 0.51262254 0.51262254 0 0 0 14.339844 16.449219 L 14.339844 16.447266 A 0.51262254 0.51262254 0 0 0 14.332031 16.365234 L 14.474609 16.425781 A 0.51262254 0.51262254 0 0 0 14.472656 16.458984 A 0.51262254 0.51262254 0 0 0 14.988281 16.964844 A 0.51262254 0.51262254 0 0 0 15.355469 16.806641 L 15.972656 17.074219 A 0.5615809 0.5615809 0 0 0 15.578125 17.615234 A 0.5615809 0.5615809 0 0 0 16.125 18.169922 A 0.59613973 0.59613973 0 0 0 15.5625 18.623047 A 0.59613973 0.59613973 0 0 0 15 18.171875 A 0.5615809 0.5615809 0 0 0 15.546875 17.605469 L 15.546875 17.601562 A 0.5615809 0.5615809 0 0 0 14.978516 17.046875 A 0.5615809 0.5615809 0 0 0 14.421875 17.615234 A 0.5615809 0.5615809 0 0 0 14.96875 18.169922 A 0.59613973 0.59613973 0 0 0 14.40625 18.623047 A 0.59613973 0.59613973 0 0 0 13.84375 18.171875 A 0.5615809 0.5615809 0 0 0 14.390625 17.605469 L 14.390625 17.601562 A 0.5615809 0.5615809 0 0 0 13.822266 17.046875 A 0.5615809 0.5615809 0 0 0 13.265625 17.615234 A 0.5615809 0.5615809 0 0 0 13.8125 18.169922 A 0.59613973 0.59613973 0 0 0 13.25 18.623047 A 0.59613973 0.59613973 0 0 0 12.6875 18.171875 A 0.5615809 0.5615809 0 0 0 13.234375 17.605469 L 13.234375 17.601562 A 0.5615809 0.5615809 0 0 0 12.666016 17.046875 A 0.5615809 0.5615809 0 0 0 12.109375 17.615234 A 0.5615809 0.5615809 0 0 0 12.65625 18.169922 A 0.59613973 0.59613973 0 0 0 12.09375 18.623047 A 0.59613973 0.59613973 0 0 0 11.53125 18.171875 A 0.5615809 0.5615809 0 0 0 12.078125 17.605469 L 12.078125 17.601562 A 0.5615809 0.5615809 0 0 0 11.509766 17.046875 A 0.5615809 0.5615809 0 0 0 10.953125 17.615234 A 0.5615809 0.5615809 0 0 0 11.5 18.169922 A 0.59613973 0.59613973 0 0 0 10.9375 18.623047 A 0.59613973 0.59613973 0 0 0 10.375 18.171875 A 0.5615809 0.5615809 0 0 0 10.921875 17.605469 L 10.921875 17.601562 A 0.5615809 0.5615809 0 0 0 10.353516 17.046875 A 0.5615809 0.5615809 0 0 0 9.796875 17.615234 A 0.5615809 0.5615809 0 0 0 10.34375 18.169922 A 0.59613973 0.59613973 0 0 0 9.78125 18.623047 A 0.59613973 0.59613973 0 0 0 9.21875 18.171875 A 0.5615809 0.5615809 0 0 0 9.765625 17.605469 L 9.765625 17.601562 A 0.5615809 0.5615809 0 0 0 9.1972656 17.046875 A 0.5615809 0.5615809 0 0 0 8.640625 17.615234 A 0.5615809 0.5615809 0 0 0 9.1875 18.169922 A 0.59613973 0.59613973 0 0 0 8.625 18.623047 A 0.59613973 0.59613973 0 0 0 8.0625 18.171875 A 0.5615809 0.5615809 0 0 0 8.609375 17.605469 L 8.609375 17.601562 A 0.5615809 0.5615809 0 0 0 8.0820312 17.050781 L 8.7851562 16.746094 A 0.51262254 0.51262254 0 0 0 9.2070312 16.964844 A 0.51262254 0.51262254 0 0 0 9.7148438 16.449219 L 9.7148438 16.447266 A 0.51262254 0.51262254 0 0 0 9.703125 16.349609 L 9.8808594 16.273438 A 0.51262254 0.51262254 0 0 0 9.8476562 16.458984 A 0.51262254 0.51262254 0 0 0 10.363281 16.964844 A 0.51262254 0.51262254 0 0 0 10.871094 16.449219 L 10.871094 16.447266 A 0.51262254 0.51262254 0 0 0 10.353516 15.941406 A 0.51262254 0.51262254 0 0 0 10.28125 15.947266 L 10.289062 15.748047 A 0.45790443 0.45790443 0 0 0 10.363281 15.753906 A 0.45790443 0.45790443 0 0 0 10.816406 15.292969 L 10.816406 15.291016 A 0.45790443 0.45790443 0 0 0 10.353516 14.839844 A 0.45790443 0.45790443 0 0 0 10.330078 14.841797 L 10.34375 14.5625 A 0.4233456 0.4233456 0 0 0 10.363281 14.564453 A 0.4233456 0.4233456 0 0 0 10.783203 14.138672 L 10.783203 14.134766 A 0.4233456 0.4233456 0 0 0 10.380859 13.71875 L 10.396484 13.371094 A 0.38878679 0.38878679 0 0 0 10.748047 12.982422 L 10.748047 12.978516 A 0.38878679 0.38878679 0 0 0 10.431641 12.603516 L 10.451172 12.169922 A 0.35422793 0.35422793 0 0 0 10.712891 11.826172 L 10.712891 11.824219 A 0.35422793 0.35422793 0 0 0 10.482422 11.496094 L 10.505859 10.955078 A 0.3196691 0.3196691 0 0 0 10.679688 10.669922 L 10.679688 10.667969 A 0.3196691 0.3196691 0 0 0 10.53125 10.402344 L 10.564453 9.6816406 A 0.26495096 0.26495096 0 0 0 10.625 9.5136719 L 10.625 9.5117188 A 0.26495096 0.26495096 0 0 0 10.578125 9.3671875 L 10.730469 6.0214844 L 8.8515625 4.984375 L 8.8515625 3.5371094 z M 9.203125 3.65625 A 0.077757351 0.077757351 0 0 0 9.125 3.734375 A 0.077757351 0.077757351 0 0 0 9.203125 3.8125 A 0.077757351 0.077757351 0 0 0 9.234375 3.8066406 A 0.077757351 0.077757351 0 0 0 9.2441406 3.8007812 A 0.077757351 0.077757351 0 0 0 9.25 3.796875 A 0.077757351 0.077757351 0 0 0 9.2558594 3.7910156 A 0.077757351 0.077757351 0 0 0 9.265625 3.7792969 A 0.077757351 0.077757351 0 0 0 9.2695312 3.7734375 A 0.077757351 0.077757351 0 0 0 9.2792969 3.7519531 A 0.077757351 0.077757351 0 0 0 9.28125 3.734375 L 9.28125 3.7324219 A 0.077757351 0.077757351 0 0 0 9.203125 3.65625 z M 10.359375 3.65625 A 0.077757351 0.077757351 0 0 0 10.28125 3.734375 A 0.077757351 0.077757351 0 0 0 10.359375 3.8125 A 0.077757351 0.077757351 0 0 0 10.390625 3.8066406 A 0.077757351 0.077757351 0 0 0 10.400391 3.8007812 A 0.077757351 0.077757351 0 0 0 10.40625 3.796875 A 0.077757351 0.077757351 0 0 0 10.412109 3.7910156 A 0.077757351 0.077757351 0 0 0 10.421875 3.7792969 A 0.077757351 0.077757351 0 0 0 10.425781 3.7734375 A 0.077757351 0.077757351 0 0 0 10.435547 3.7519531 A 0.077757351 0.077757351 0 0 0 10.4375 3.734375 L 10.4375 3.7324219 A 0.077757351 0.077757351 0 0 0 10.359375 3.65625 z M 11.515625 3.65625 A 0.077757351 0.077757351 0 0 0 11.4375 3.734375 A 0.077757351 0.077757351 0 0 0 11.515625 3.8125 A 0.077757351 0.077757351 0 0 0 11.546875 3.8066406 A 0.077757351 0.077757351 0 0 0 11.556641 3.8007812 A 0.077757351 0.077757351 0 0 0 11.5625 3.796875 A 0.077757351 0.077757351 0 0 0 11.568359 3.7910156 A 0.077757351 0.077757351 0 0 0 11.578125 3.7792969 A 0.077757351 0.077757351 0 0 0 11.582031 3.7734375 A 0.077757351 0.077757351 0 0 0 11.591797 3.7519531 A 0.077757351 0.077757351 0 0 0 11.59375 3.734375 L 11.59375 3.7324219 A 0.077757351 0.077757351 0 0 0 11.515625 3.65625 z M 12.671875 3.65625 A 0.077757351 0.077757351 0 0 0 12.59375 3.734375 A 0.077757351 0.077757351 0 0 0 12.671875 3.8125 A 0.077757351 0.077757351 0 0 0 12.703125 3.8066406 A 0.077757351 0.077757351 0 0 0 12.712891 3.8007812 A 0.077757351 0.077757351 0 0 0 12.71875 3.796875 A 0.077757351 0.077757351 0 0 0 12.724609 3.7910156 A 0.077757351 0.077757351 0 0 0 12.734375 3.7792969 A 0.077757351 0.077757351 0 0 0 12.738281 3.7734375 A 0.077757351 0.077757351 0 0 0 12.748047 3.7519531 A 0.077757351 0.077757351 0 0 0 12.75 3.734375 L 12.75 3.7324219 A 0.077757351 0.077757351 0 0 0 12.671875 3.65625 z M 13.828125 3.65625 A 0.077757351 0.077757351 0 0 0 13.75 3.734375 A 0.077757351 0.077757351 0 0 0 13.828125 3.8125 A 0.077757351 0.077757351 0 0 0 13.859375 3.8066406 A 0.077757351 0.077757351 0 0 0 13.869141 3.8007812 A 0.077757351 0.077757351 0 0 0 13.875 3.796875 A 0.077757351 0.077757351 0 0 0 13.880859 3.7910156 A 0.077757351 0.077757351 0 0 0 13.890625 3.7792969 A 0.077757351 0.077757351 0 0 0 13.894531 3.7734375 A 0.077757351 0.077757351 0 0 0 13.904297 3.7519531 A 0.077757351 0.077757351 0 0 0 13.90625 3.734375 L 13.90625 3.7324219 A 0.077757351 0.077757351 0 0 0 13.828125 3.65625 z M 14.984375 3.65625 A 0.077757351 0.077757351 0 0 0 14.90625 3.734375 A 0.077757351 0.077757351 0 0 0 14.984375 3.8125 A 0.077757351 0.077757351 0 0 0 15.015625 3.8066406 A 0.077757351 0.077757351 0 0 0 15.025391 3.8007812 A 0.077757351 0.077757351 0 0 0 15.03125 3.796875 A 0.077757351 0.077757351 0 0 0 15.037109 3.7910156 A 0.077757351 0.077757351 0 0 0 15.046875 3.7792969 A 0.077757351 0.077757351 0 0 0 15.050781 3.7734375 A 0.077757351 0.077757351 0 0 0 15.060547 3.7519531 A 0.077757351 0.077757351 0 0 0 15.0625 3.734375 L 15.0625 3.7324219 A 0.077757351 0.077757351 0 0 0 14.984375 3.65625 z M 9.2011719 4.7773438 A 0.11231617 0.11231617 0 0 0 9.0898438 4.8925781 A 0.11231617 0.11231617 0 0 0 9.203125 5.0039062 A 0.11231617 0.11231617 0 0 0 9.3164062 4.890625 L 9.3164062 4.8886719 A 0.11231617 0.11231617 0 0 0 9.2011719 4.7773438 z M 10.357422 4.7773438 A 0.11231617 0.11231617 0 0 0 10.246094 4.8925781 A 0.11231617 0.11231617 0 0 0 10.359375 5.0039062 A 0.11231617 0.11231617 0 0 0 10.472656 4.890625 L 10.472656 4.8886719 A 0.11231617 0.11231617 0 0 0 10.357422 4.7773438 z M 11.513672 4.7773438 A 0.11231617 0.11231617 0 0 0 11.402344 4.8925781 A 0.11231617 0.11231617 0 0 0 11.515625 5.0039062 A 0.11231617 0.11231617 0 0 0 11.628906 4.890625 L 11.628906 4.8886719 A 0.11231617 0.11231617 0 0 0 11.513672 4.7773438 z M 12.669922 4.7773438 A 0.11231617 0.11231617 0 0 0 12.558594 4.8925781 A 0.11231617 0.11231617 0 0 0 12.671875 5.0039062 A 0.11231617 0.11231617 0 0 0 12.785156 4.890625 L 12.785156 4.8886719 A 0.11231617 0.11231617 0 0 0 12.669922 4.7773438 z M 13.826172 4.7773438 A 0.11231617 0.11231617 0 0 0 13.714844 4.8925781 A 0.11231617 0.11231617 0 0 0 13.828125 5.0039062 A 0.11231617 0.11231617 0 0 0 13.941406 4.890625 L 13.941406 4.8886719 A 0.11231617 0.11231617 0 0 0 13.826172 4.7773438 z M 14.982422 4.7773438 A 0.11231617 0.11231617 0 0 0 14.871094 4.8925781 A 0.11231617 0.11231617 0 0 0 14.984375 5.0039062 A 0.11231617 0.11231617 0 0 0 15.097656 4.890625 L 15.097656 4.8886719 A 0.11231617 0.11231617 0 0 0 14.982422 4.7773438 z M 11.513672 5.9003906 A 0.14687499 0.14687499 0 0 0 11.369141 6.0488281 A 0.14687499 0.14687499 0 0 0 11.517578 6.1933594 A 0.14687499 0.14687499 0 0 0 11.662109 6.046875 L 11.662109 6.0449219 A 0.14687499 0.14687499 0 0 0 11.513672 5.9003906 z M 12.669922 5.9003906 A 0.14687499 0.14687499 0 0 0 12.525391 6.0488281 A 0.14687499 0.14687499 0 0 0 12.673828 6.1933594 A 0.14687499 0.14687499 0 0 0 12.818359 6.046875 L 12.818359 6.0449219 A 0.14687499 0.14687499 0 0 0 12.669922 5.9003906 z M 11.513672 7.0214844 A 0.18143381 0.18143381 0 0 0 11.333984 7.2050781 A 0.18143381 0.18143381 0 0 0 11.517578 7.3847656 A 0.18143381 0.18143381 0 0 0 11.697266 7.2011719 A 0.18143381 0.18143381 0 0 0 11.513672 7.0214844 z M 12.669922 7.0214844 A 0.18143381 0.18143381 0 0 0 12.490234 7.2050781 A 0.18143381 0.18143381 0 0 0 12.673828 7.3847656 A 0.18143381 0.18143381 0 0 0 12.853516 7.2011719 A 0.18143381 0.18143381 0 0 0 12.669922 7.0214844 z M 11.513672 8.1425781 A 0.21599263 0.21599263 0 0 0 11.298828 8.3613281 A 0.21599263 0.21599263 0 0 0 11.517578 8.5761719 A 0.21599263 0.21599263 0 0 0 11.732422 8.3574219 A 0.21599263 0.21599263 0 0 0 11.513672 8.1425781 z M 12.669922 8.1425781 A 0.21599263 0.21599263 0 0 0 12.455078 8.3613281 A 0.21599263 0.21599263 0 0 0 12.673828 8.5761719 A 0.21599263 0.21599263 0 0 0 12.888672 8.3574219 A 0.21599263 0.21599263 0 0 0 12.669922 8.1425781 z M 11.511719 9.25 A 0.26495096 0.26495096 0 0 0 11.25 9.5175781 A 0.26495096 0.26495096 0 0 0 11.517578 9.78125 A 0.26495096 0.26495096 0 0 0 11.78125 9.5136719 L 11.78125 9.5117188 A 0.26495096 0.26495096 0 0 0 11.511719 9.25 z M 12.667969 9.25 A 0.26495096 0.26495096 0 0 0 12.40625 9.5175781 A 0.26495096 0.26495096 0 0 0 12.673828 9.78125 A 0.26495096 0.26495096 0 0 0 12.9375 9.5136719 L 12.9375 9.5117188 A 0.26495096 0.26495096 0 0 0 12.667969 9.25 z M 11.511719 10.351562 A 0.3196691 0.3196691 0 0 0 11.195312 10.675781 A 0.3196691 0.3196691 0 0 0 11.517578 10.992188 A 0.3196691 0.3196691 0 0 0 11.835938 10.669922 L 11.835938 10.667969 A 0.3196691 0.3196691 0 0 0 11.511719 10.351562 z M 12.667969 10.351562 A 0.3196691 0.3196691 0 0 0 12.351562 10.675781 A 0.3196691 0.3196691 0 0 0 12.673828 10.992188 A 0.3196691 0.3196691 0 0 0 12.992188 10.669922 L 12.992188 10.667969 A 0.3196691 0.3196691 0 0 0 12.667969 10.351562 z M 11.511719 11.474609 A 0.35422793 0.35422793 0 0 0 11.162109 11.832031 A 0.35422793 0.35422793 0 0 0 11.517578 12.181641 A 0.35422793 0.35422793 0 0 0 11.869141 11.826172 L 11.869141 11.824219 A 0.35422793 0.35422793 0 0 0 11.511719 11.474609 z M 12.667969 11.474609 A 0.35422793 0.35422793 0 0 0 12.318359 11.832031 A 0.35422793 0.35422793 0 0 0 12.673828 12.181641 A 0.35422793 0.35422793 0 0 0 13.025391 11.826172 L 13.025391 11.824219 A 0.35422793 0.35422793 0 0 0 12.667969 11.474609 z M 11.511719 12.595703 A 0.38878679 0.38878679 0 0 0 11.126953 12.988281 A 0.38878679 0.38878679 0 0 0 11.519531 13.373047 A 0.38878679 0.38878679 0 0 0 11.904297 12.982422 L 11.904297 12.978516 A 0.38878679 0.38878679 0 0 0 11.511719 12.595703 z M 12.667969 12.595703 A 0.38878679 0.38878679 0 0 0 12.283203 12.988281 A 0.38878679 0.38878679 0 0 0 12.675781 13.373047 A 0.38878679 0.38878679 0 0 0 13.060547 12.982422 L 13.060547 12.978516 A 0.38878679 0.38878679 0 0 0 12.667969 12.595703 z M 11.509766 13.716797 A 0.4233456 0.4233456 0 0 0 11.091797 14.144531 A 0.4233456 0.4233456 0 0 0 11.519531 14.564453 A 0.4233456 0.4233456 0 0 0 11.939453 14.138672 L 11.939453 14.134766 A 0.4233456 0.4233456 0 0 0 11.509766 13.716797 z M 12.666016 13.716797 A 0.4233456 0.4233456 0 0 0 12.248047 14.144531 A 0.4233456 0.4233456 0 0 0 12.675781 14.564453 A 0.4233456 0.4233456 0 0 0 13.095703 14.138672 L 13.095703 14.134766 A 0.4233456 0.4233456 0 0 0 12.666016 13.716797 z M 11.509766 14.839844 A 0.45790443 0.45790443 0 0 0 11.058594 15.300781 A 0.45790443 0.45790443 0 0 0 11.519531 15.753906 A 0.45790443 0.45790443 0 0 0 11.972656 15.292969 L 11.972656 15.291016 A 0.45790443 0.45790443 0 0 0 11.509766 14.839844 z M 12.666016 14.839844 A 0.45790443 0.45790443 0 0 0 12.214844 15.300781 A 0.45790443 0.45790443 0 0 0 12.675781 15.753906 A 0.45790443 0.45790443 0 0 0 13.128906 15.292969 L 13.128906 15.291016 A 0.45790443 0.45790443 0 0 0 12.666016 14.839844 z M 11.509766 15.941406 A 0.51262254 0.51262254 0 0 0 11.003906 16.458984 A 0.51262254 0.51262254 0 0 0 11.519531 16.964844 A 0.51262254 0.51262254 0 0 0 12.027344 16.449219 L 12.027344 16.447266 A 0.51262254 0.51262254 0 0 0 11.509766 15.941406 z M 12.666016 15.941406 A 0.51262254 0.51262254 0 0 0 12.160156 16.458984 A 0.51262254 0.51262254 0 0 0 12.675781 16.964844 A 0.51262254 0.51262254 0 0 0 13.183594 16.449219 L 13.183594 16.447266 A 0.51262254 0.51262254 0 0 0 12.666016 15.941406 z M 7.6152344 17.251953 A 0.5615809 0.5615809 0 0 0 7.484375 17.615234 A 0.5615809 0.5615809 0 0 0 8.03125 18.169922 A 0.59613973 0.59613973 0 0 0 7.46875 18.623047 A 0.59613973 0.59613973 0 0 0 6.90625 18.171875 A 0.5615809 0.5615809 0 0 0 7.453125 17.605469 L 7.453125 17.601562 A 0.5615809 0.5615809 0 0 0 7.3867188 17.349609 L 7.6152344 17.251953 z M 16.644531 17.363281 L 16.769531 17.417969 A 0.5615809 0.5615809 0 0 0 16.734375 17.615234 A 0.5615809 0.5615809 0 0 0 17.28125 18.169922 A 0.59613973 0.59613973 0 0 0 16.71875 18.623047 A 0.59613973 0.59613973 0 0 0 16.15625 18.171875 A 0.5615809 0.5615809 0 0 0 16.703125 17.605469 L 16.703125 17.601562 A 0.5615809 0.5615809 0 0 0 16.644531 17.363281 z M 6.3613281 17.792969 A 0.5615809 0.5615809 0 0 0 6.875 18.169922 A 0.59613973 0.59613973 0 0 0 6.3125 18.623047 A 0.59613973 0.59613973 0 0 0 5.75 18.171875 A 0.5615809 0.5615809 0 0 0 6.2460938 17.84375 L 6.3613281 17.792969 z M 17.798828 17.861328 L 18.011719 17.953125 A 0.5615809 0.5615809 0 0 0 18.4375 18.169922 A 0.59613973 0.59613973 0 0 0 17.875 18.623047 A 0.59613973 0.59613973 0 0 0 17.3125 18.171875 A 0.5615809 0.5615809 0 0 0 17.798828 17.861328 z M 5.5546875 18.140625 A 0.5615809 0.5615809 0 0 0 5.71875 18.169922 A 0.59613973 0.59613973 0 0 0 5.546875 18.201172 L 5.546875 18.144531 L 5.5546875 18.140625 z M 6.3125 18.910156 A 0.59613973 0.59613973 0 0 0 6.6894531 19.326172 A 0.63069856 0.63069856 0 0 0 6.3125 19.671875 A 0.63069856 0.63069856 0 0 0 5.9394531 19.326172 A 0.59613973 0.59613973 0 0 0 6.3125 18.910156 z M 7.46875 18.910156 A 0.59613973 0.59613973 0 0 0 7.8457031 19.326172 A 0.63069856 0.63069856 0 0 0 7.46875 19.671875 A 0.63069856 0.63069856 0 0 0 7.0957031 19.326172 A 0.59613973 0.59613973 0 0 0 7.46875 18.910156 z M 8.625 18.910156 A 0.59613973 0.59613973 0 0 0 9.0019531 19.326172 A 0.63069856 0.63069856 0 0 0 8.625 19.671875 A 0.63069856 0.63069856 0 0 0 8.2519531 19.326172 A 0.59613973 0.59613973 0 0 0 8.625 18.910156 z M 9.78125 18.910156 A 0.59613973 0.59613973 0 0 0 10.158203 19.326172 A 0.63069856 0.63069856 0 0 0 9.78125 19.671875 A 0.63069856 0.63069856 0 0 0 9.4082031 19.326172 A 0.59613973 0.59613973 0 0 0 9.78125 18.910156 z M 10.9375 18.910156 A 0.59613973 0.59613973 0 0 0 11.314453 19.326172 A 0.63069856 0.63069856 0 0 0 10.9375 19.671875 A 0.63069856 0.63069856 0 0 0 10.564453 19.326172 A 0.59613973 0.59613973 0 0 0 10.9375 18.910156 z M 12.09375 18.910156 A 0.59613973 0.59613973 0 0 0 12.470703 19.326172 A 0.63069856 0.63069856 0 0 0 12.09375 19.671875 A 0.63069856 0.63069856 0 0 0 11.720703 19.326172 A 0.59613973 0.59613973 0 0 0 12.09375 18.910156 z M 13.25 18.910156 A 0.59613973 0.59613973 0 0 0 13.626953 19.326172 A 0.63069856 0.63069856 0 0 0 13.25 19.671875 A 0.63069856 0.63069856 0 0 0 12.876953 19.326172 A 0.59613973 0.59613973 0 0 0 13.25 18.910156 z M 14.40625 18.910156 A 0.59613973 0.59613973 0 0 0 14.783203 19.326172 A 0.63069856 0.63069856 0 0 0 14.40625 19.671875 A 0.63069856 0.63069856 0 0 0 14.033203 19.326172 A 0.59613973 0.59613973 0 0 0 14.40625 18.910156 z M 15.5625 18.910156 A 0.59613973 0.59613973 0 0 0 15.939453 19.326172 A 0.63069856 0.63069856 0 0 0 15.5625 19.671875 A 0.63069856 0.63069856 0 0 0 15.189453 19.326172 A 0.59613973 0.59613973 0 0 0 15.5625 18.910156 z M 16.71875 18.910156 A 0.59613973 0.59613973 0 0 0 17.095703 19.326172 A 0.63069856 0.63069856 0 0 0 16.71875 19.671875 A 0.63069856 0.63069856 0 0 0 16.345703 19.326172 A 0.59613973 0.59613973 0 0 0 16.71875 18.910156 z M 17.875 18.910156 A 0.59613973 0.59613973 0 0 0 18.251953 19.326172 A 0.63069856 0.63069856 0 0 0 17.875 19.671875 A 0.63069856 0.63069856 0 0 0 17.501953 19.326172 A 0.59613973 0.59613973 0 0 0 17.875 18.910156 z M 6.3125 20.171875 A 0.63069856 0.63069856 0 0 0 6.5683594 20.462891 L 6.0585938 20.462891 A 0.63069856 0.63069856 0 0 0 6.3125 20.171875 z M 7.46875 20.171875 A 0.63069856 0.63069856 0 0 0 7.7246094 20.462891 L 7.2148438 20.462891 A 0.63069856 0.63069856 0 0 0 7.46875 20.171875 z M 8.625 20.171875 A 0.63069856 0.63069856 0 0 0 8.8808594 20.462891 L 8.3710938 20.462891 A 0.63069856 0.63069856 0 0 0 8.625 20.171875 z M 9.78125 20.171875 A 0.63069856 0.63069856 0 0 0 10.037109 20.462891 L 9.5273438 20.462891 A 0.63069856 0.63069856 0 0 0 9.78125 20.171875 z M 10.9375 20.171875 A 0.63069856 0.63069856 0 0 0 11.193359 20.462891 L 10.683594 20.462891 A 0.63069856 0.63069856 0 0 0 10.9375 20.171875 z M 12.09375 20.171875 A 0.63069856 0.63069856 0 0 0 12.349609 20.462891 L 12 20.462891 L 11.839844 20.462891 A 0.63069856 0.63069856 0 0 0 12.09375 20.171875 z M 13.25 20.171875 A 0.63069856 0.63069856 0 0 0 13.505859 20.462891 L 12.996094 20.462891 A 0.63069856 0.63069856 0 0 0 13.25 20.171875 z M 14.40625 20.171875 A 0.63069856 0.63069856 0 0 0 14.662109 20.462891 L 14.152344 20.462891 A 0.63069856 0.63069856 0 0 0 14.40625 20.171875 z M 15.5625 20.171875 A 0.63069856 0.63069856 0 0 0 15.818359 20.462891 L 15.308594 20.462891 A 0.63069856 0.63069856 0 0 0 15.5625 20.171875 z M 16.71875 20.171875 A 0.63069856 0.63069856 0 0 0 16.974609 20.462891 L 16.464844 20.462891 A 0.63069856 0.63069856 0 0 0 16.71875 20.171875 z M 17.875 20.171875 A 0.63069856 0.63069856 0 0 0 18.130859 20.462891 L 17.621094 20.462891 A 0.63069856 0.63069856 0 0 0 17.875 20.171875 z "/>
</svg>