<svg viewBox="0 0 24 24" xmlns="http://www.w3.org/2000/svg">
	<path d="M 7.3027344 2 L 7.3027344 5.8886719 L 9.140625 6.9023438 L 8.7695312 15.076172 L 4 17.136719 L 4 22 L 12 22 L 20 22 L 20 17.136719 L 15.230469 15.076172 L 14.859375 6.9023438 L 16.697266 5.8886719 L 16.697266 2 L 12 2 L 7.3027344 2 z M 8.8515625 3.5371094 L 12 3.5371094 L 15.148438 3.5371094 L 15.148438 4.984375 L 13.269531 6.0214844 L 13.480469 10.671875 L 12.939453 10.130859 L 12.78125 10.289062 L 12.375 10.695312 L 12.939453 11.259766 L 13.482422 10.716797 L 13.566406 12.552734 L 12.939453 11.925781 L 12.738281 12.125 L 12.224609 12.638672 L 12.939453 13.353516 L 13.572266 12.71875 L 13.650391 14.435547 L 12.939453 13.724609 L 12.697266 13.964844 L 12.078125 14.583984 L 12.939453 15.445312 L 13.664062 14.71875 L 13.726562 16.103516 L 14.126953 16.277344 L 13.912109 16.492188 L 12.939453 15.519531 L 11.966797 16.492188 L 10.994141 15.519531 L 10.023438 16.492188 L 9.828125 16.296875 L 10.273438 16.103516 L 10.333984 14.783203 L 10.994141 15.445312 L 11.855469 14.583984 L 10.994141 13.724609 L 10.753906 13.964844 L 10.351562 14.367188 L 10.423828 12.78125 L 10.994141 13.353516 L 11.708984 12.638672 L 10.994141 11.925781 L 10.794922 12.125 L 10.4375 12.482422 L 10.515625 10.78125 L 10.994141 11.259766 L 11.558594 10.695312 L 10.994141 10.130859 L 10.835938 10.289062 L 10.523438 10.601562 L 10.605469 8.7792969 L 10.994141 9.1679688 L 11.414062 8.75 L 10.994141 8.3320312 L 10.876953 8.4492188 L 10.607422 8.71875 L 10.730469 6.0214844 L 8.8515625 4.984375 L 8.8515625 3.5371094 z M 9.0507812 4.7304688 L 9.0136719 4.7675781 L 8.9179688 4.8613281 L 9.0507812 4.9921875 L 9.1816406 4.8613281 L 9.0507812 4.7304688 z M 10.994141 4.7304688 L 10.957031 4.7675781 L 10.863281 4.8613281 L 10.994141 4.9921875 L 11.125 4.8613281 L 10.994141 4.7304688 z M 12.941406 4.7402344 L 12.90625 4.7734375 L 12.818359 4.8613281 L 12.941406 4.9824219 L 13.0625 4.8613281 L 12.941406 4.7402344 z M 14.884766 4.7402344 L 14.851562 4.7734375 L 14.763672 4.8613281 L 14.884766 4.9824219 L 15.005859 4.8613281 L 14.884766 4.7402344 z M 10.994141 6.5371094 L 10.917969 6.6132812 L 10.724609 6.8066406 L 10.994141 7.0761719 L 11.263672 6.8066406 L 10.994141 6.5371094 z M 12.939453 6.5371094 L 12.863281 6.6132812 L 12.669922 6.8066406 L 12.939453 7.0761719 L 13.208984 6.8066406 L 12.939453 6.5371094 z M 12.939453 8.3320312 L 12.822266 8.4492188 L 12.521484 8.75 L 12.939453 9.1679688 L 13.357422 8.75 L 12.939453 8.3320312 z M 10.023438 16.566406 L 10.882812 17.427734 L 10.023438 18.289062 L 9.1621094 17.427734 L 10.023438 16.566406 z M 11.966797 16.566406 L 12.832031 17.431641 L 11.970703 18.292969 L 11.105469 17.427734 L 11.966797 16.566406 z M 13.912109 16.566406 L 14.777344 17.431641 L 14.5625 17.646484 L 13.910156 18.296875 L 13.046875 17.433594 L 13.912109 16.566406 z M 15.537109 16.884766 L 16.746094 17.408203 L 16.505859 17.646484 L 15.855469 18.296875 L 14.990234 17.431641 L 15.537109 16.884766 z M 8.4160156 16.904297 L 8.9394531 17.427734 L 8.7265625 17.642578 L 8.078125 18.289062 L 7.2128906 17.423828 L 8.4160156 16.904297 z M 17.033203 17.53125 L 18.103516 17.994141 L 17.800781 18.296875 L 17.033203 17.53125 z M 6.8359375 17.587891 L 6.78125 17.642578 L 6.1328125 18.289062 L 5.8554688 18.011719 L 6.8359375 17.587891 z M 13.910156 18.648438 L 14.634766 19.373047 L 14.521484 19.486328 L 13.914062 20.09375 L 13.189453 19.371094 L 13.910156 18.648438 z M 15.855469 18.648438 L 16.580078 19.373047 L 16.464844 19.486328 L 15.857422 20.095703 L 15.132812 19.371094 L 15.855469 18.648438 z M 17.800781 18.648438 L 18.423828 19.271484 L 18.208984 19.486328 L 17.701172 19.994141 L 17.078125 19.371094 L 17.800781 18.648438 z M 11.970703 18.652344 L 12.691406 19.373047 L 12.576172 19.486328 L 11.96875 20.09375 L 11.248047 19.375 L 11.970703 18.652344 z M 6.1328125 18.65625 L 6.8476562 19.371094 L 6.7402344 19.478516 L 6.2324219 19.986328 L 5.546875 19.300781 L 5.546875 19.242188 L 6.1328125 18.65625 z M 8.078125 18.65625 L 8.796875 19.375 L 8.6875 19.486328 L 8.0820312 20.089844 L 7.3632812 19.371094 L 8.078125 18.65625 z M 10.023438 18.65625 L 10.742188 19.376953 L 10.630859 19.486328 L 10.023438 20.09375 L 9.3046875 19.375 L 10.023438 18.65625 z " />
</svg>
