<svg viewBox="0 0 24 24" xmlns="http://www.w3.org/2000/svg">
   <path d="M 1.3710938 4.5742188 L 1.359375 6.5742188 L 4.6875 6.5917969 L 4.6875 10.322266 L 4.1601562 10.595703 L 1.3496094 12.048828 L 4.6875 13.5625 L 4.6875 17.394531 L 1.3066406 17.412109 L 1.3164062 19.412109 L 10.873047 19.361328 C 15.752163 19.472097 18.865575 18.229891 22.693359 16.390625 L 21.828125 14.587891 C 18.056709 16.400071 15.454006 17.464263 10.919922 17.361328 L 10.904297 17.361328 L 6.3125 17.384766 L 6.3125 13.265625 L 12.736328 12.917969 C 12.600986 12.592764 12.528737 12.244782 12.523438 11.892578 C 12.521238 11.616879 12.560047 11.342385 12.638672 11.078125 L 6.3125 10.734375 L 6.3125 6.5996094 L 10.958984 6.625 L 10.972656 6.625 C 15.506743 6.5220649 18.109443 7.5882097 21.880859 9.4003906 L 22.748047 7.5976562 C 18.920262 5.7583902 15.806851 4.5161849 10.927734 4.6269531 L 10.955078 4.625 L 1.3710938 4.5742188 z M 16.564453 9.4628906 C 15.152855 9.4791756 14.011427 10.643065 14.025391 12.054688 C 14.039361 13.466309 15.203593 14.611253 16.615234 14.599609 C 18.02688 14.587989 19.171431 13.425329 19.162109 12.013672 L 19.162109 11.998047 C 19.143499 10.586468 17.976052 9.4466051 16.564453 9.4628906 z " />
</svg>
