<?xml version="1.0" encoding="UTF-8" standalone="no"?>
<svg
   viewBox="0 0 24 24"
   version="1.1"
   id="svg1"
   sodipodi:docname="filterActive.svg"
   inkscape:version="1.4.3 (0d15f75, 2025-12-25)"
   xmlns:inkscape="http://www.inkscape.org/namespaces/inkscape"
   xmlns:sodipodi="http://sodipodi.sourceforge.net/DTD/sodipodi-0.dtd"
   xmlns="http://www.w3.org/2000/svg"
   xmlns:svg="http://www.w3.org/2000/svg">
  <defs
     id="defs1" />
  <sodipodi:namedview
     id="namedview1"
     pagecolor="#ffffff"
     bordercolor="#000000"
     borderopacity="0.25"
     inkscape:showpageshadow="2"
     inkscape:pageopacity="0.0"
     inkscape:pagecheckerboard="0"
     inkscape:deskcolor="#d1d1d1"
     inkscape:zoom="17.191534"
     inkscape:cx="17.217777"
     inkscape:cy="11.430045"
     inkscape:window-width="1920"
     inkscape:window-height="1177"
     inkscape:window-x="4472"
     inkscape:window-y="-8"
     inkscape:window-maximized="1"
     inkscape:current-layer="svg1" />
  <path
     style="baseline-shift:baseline;display:inline;overflow:visible;vector-effect:none;enable-background:accumulate;stop-color:#000000;stop-opacity:1;opacity:1"
     d="M 0.16992187,0.25195313 8.3925781,11.144531 l -0.013672,2.970703 -2.4902344,-1.90625 -3.0546875,3.941407 5.578125,4.160156 -0.023437,3.125 h 7.4414061 l -0.01953,-5.111328 8.113281,-9.0410159 -3.65625,-3.7226562 -1.650391,1.8886718 5.433594,-7.19726557 z M 3.0488281,1.6855469 H 21.171875 l -6.785156,8.9902341 0.04883,1.5625 -3.410156,3.902344 -1.2167972,-0.931641 0.019531,-4.541015 z m 17.2792969,5.9824218 1.630859,1.6601563 -10.375,11.560547 -6.7226559,-5.015625 1.2871094,-1.660156 5.0722655,3.882812 z m -5.945312,12.2460933 0.0078,2.087891 H 12.509766 Z M 9.8359375,21.375 10.677734,22.001953 H 9.8320313 Z"
     id="path1" />
</svg>
