<svg xmlns="http://www.w3.org/2000/svg" viewBox="0 0 24 24">
    <path d="M 4,2 C 2.8954305,2 2,2.8954305 2,4 v 16 c 0,1.099999 0.9200011,2 2,2 h 9.898438 C 13.313078,21.255045 12.98885,20.575717 13,20 v -7 h 1.873047 c 0.887538,-0.991819 1.999874,-1.535566 3.148437,-1.539062 1.564746,2.47e-4 3.038339,1.001451 3.978516,2.703124 V 4 C 22,2.8954305 21.104569,2 20,2 Z m 0,2 h 7 v 7 H 4 Z m 9,0 h 7 v 7 h -7 z m -9,9 h 7 v 7 H 4 Z M 20.67,15.5 V 15 c 0,-1.38 -1.12,-2.5 -2.5,-2.5 -1.38,0 -2.5,1.12 -2.5,2.5 v 0.5 c -0.55,0 -1,0.45 -1,1 v 4 c 0,0.55 0.45,1 1,1 h 5 c 0.55,0 1,-0.45 1,-1 v -4 c 0,-0.55 -0.45,-1 -1,-1 m -1,0 h -3 V 15 c 0,-0.83 0.67,-1.5 1.5,-1.5 0.83,0 1.5,0.67 1.5,1.5 z"/>
</svg>
