<svg xmlns="http://www.w3.org/2000/svg" viewBox="0 0 24 24">
    <path d="m 3.6409689,5.2883023 c -0.2313229,0 -0.4258238,0.010377 -0.5840974,0.030657 -0.1521861,0.020291 -0.2743241,0.04794 -0.3656358,0.081756 -0.091312,0.033816 -0.1597523,0.078748 -0.2023644,0.1328543 -0.036525,0.054105 -0.052891,0.1137645 -0.052891,0.1813972 V 18.111296 c 0,0.06763 0.016366,0.129842 0.052891,0.183952 0.042612,0.05411 0.1110529,0.09649 0.2023644,0.1303 0.091312,0.03382 0.2134497,0.06147 0.3656358,0.08176 0.1582736,0.02029 0.3527745,0.03066 0.5840974,0.03066 0.2374103,0 0.4319112,-0.01033 0.5840974,-0.03066 0.1521861,-0.02029 0.274324,-0.04794 0.3656357,-0.08176 0.091311,-0.03382 0.1543419,-0.07619 0.1908665,-0.1303 0.036525,-0.05411 0.05519,-0.116317 0.05519,-0.183952 v -5.303951 h 4.4198236 v 5.303951 c 0,0.06763 0.018665,0.129842 0.05519,0.183952 0.042612,0.05411 0.1056427,0.09649 0.1908663,0.1303 0.091312,0.03382 0.2134494,0.06147 0.3656357,0.08176 0.1582729,0.02029 0.3558859,0.03066 0.5932949,0.03066 0.231324,0 0.422714,-0.01033 0.5749,-0.03066 0.152185,-0.02029 0.274323,-0.04794 0.365636,-0.08176 0.09131,-0.03382 0.154341,-0.07619 0.190866,-0.1303 0.04261,-0.05411 0.06439,-0.116317 0.06439,-0.183952 V 5.7149689 c 0,-0.067633 -0.02177,-0.1272915 -0.06439,-0.1813971 -0.03652,-0.054105 -0.09955,-0.099038 -0.190866,-0.1328543 -0.09132,-0.033816 -0.213451,-0.061466 -0.365636,-0.081756 -0.152186,-0.020289 -0.343576,-0.030659 -0.5749,-0.030659 -0.237409,0 -0.435022,0.010377 -0.5932949,0.030659 -0.1521863,0.02029 -0.2743239,0.04794 -0.3656357,0.081756 -0.085224,0.033816 -0.1482542,0.078748 -0.1908663,0.1328543 -0.036525,0.054105 -0.05519,0.1137644 -0.05519,0.1813971 V 10.533491 H 4.8367588 V 5.7149689 c 0,-0.067633 -0.018665,-0.1272915 -0.05519,-0.1813971 C 4.7450439,5.4794657 4.6820138,5.4345337 4.590702,5.4007175 4.4993903,5.3669012 4.3772524,5.3392507 4.2250663,5.3189609 4.0728801,5.2986712 3.8783792,5.2883023 3.6409689,5.2883023 Z m 11.2404261,0.061317 c -0.206974,0 -0.360221,0.062214 -0.45762,0.1839521 -0.09131,0.1149757 -0.135677,0.306875 -0.135677,0.5774052 v 5.7025154 c 0,0.263767 0.03503,0.445298 0.108085,0.546747 0.07913,0.09468 0.207496,0.143074 0.384032,0.143074 0.255674,0 0.525647,-0.02073 0.811758,-0.06131 0.292197,-0.04057 0.615058,-0.06131 0.96813,-0.06131 0.444383,0 0.82324,0.04493 1.133701,0.132853 0.31046,0.08792 0.561769,0.217609 0.756567,0.393454 0.194797,0.175845 0.338713,0.394493 0.430024,0.651497 0.09131,0.25024 0.137976,0.536361 0.137976,0.860997 0,0.378743 -0.056,0.702884 -0.165572,0.973414 -0.109568,0.27053 -0.263632,0.496993 -0.464518,0.6796 -0.200885,0.175845 -0.448272,0.30463 -0.740469,0.385789 -0.28611,0.08116 -0.60586,0.122635 -0.958932,0.122635 -0.407859,0 -0.758718,-0.03802 -1.050915,-0.112419 -0.292197,-0.08116 -0.540396,-0.168467 -0.747369,-0.263154 -0.200886,-0.09468 -0.366577,-0.178539 -0.494413,-0.252935 -0.121749,-0.08116 -0.212778,-0.122634 -0.273652,-0.122634 -0.0487,0 -0.08995,0.01728 -0.126478,0.0511 -0.03652,0.03382 -0.07075,0.09003 -0.101186,0.171177 -0.02435,0.08116 -0.04301,0.189207 -0.05518,0.324471 -0.01217,0.128496 -0.0184,0.288395 -0.0184,0.477766 0,0.175845 0.0031,0.328823 0.0092,0.457325 0.0061,0.128495 0.01542,0.236548 0.0276,0.324471 0.01826,0.08116 0.04004,0.151187 0.06439,0.212055 0.02435,0.06086 0.05939,0.119626 0.108084,0.173734 0.05479,0.04734 0.164482,0.110457 0.328843,0.191616 0.170449,0.07439 0.386726,0.151336 0.648487,0.232495 0.261759,0.07439 0.558921,0.136608 0.887644,0.183952 0.328722,0.05411 0.67417,0.08176 1.039416,0.08176 0.69397,0 1.324136,-0.101125 1.890269,-0.304031 0.57222,-0.2029 1.058471,-0.495032 1.460243,-0.873773 0.407859,-0.385506 0.721387,-0.855713 0.940535,-1.410299 0.225236,-0.561352 0.338041,-1.195808 0.338041,-1.90595 0,-0.628982 -0.08792,-1.18214 -0.264454,-1.655567 -0.176536,-0.480192 -0.434067,-0.877816 -0.774964,-1.195689 -0.33481,-0.324637 -0.75181,-0.568381 -1.250981,-0.730699 -0.493082,-0.169081 -1.060219,-0.252934 -1.699401,-0.252934 -0.231322,0 -0.453822,0.0034 -0.666882,0.01022 -0.206974,0.0068 -0.417029,0.02149 -0.63009,0.04854 V 7.6336914 h 4.201362 c 0.121749,0 0.212778,-0.09332 0.273652,-0.275928 0.06696,-0.1826079 0.101185,-0.4756418 0.101185,-0.8814371 0,-0.2028978 -0.0093,-0.3766144 -0.0276,-0.5186427 -0.01217,-0.1487917 -0.03706,-0.2672075 -0.07359,-0.3551298 -0.03044,-0.087923 -0.07088,-0.1510372 -0.119579,-0.1916168 -0.0487,-0.04058 -0.09929,-0.061317 -0.154073,-0.061317 z"/>
</svg>
