<svg xmlns="http://www.w3.org/2000/svg" viewBox="0 0 24 24">
	<path d="M19,3H5C3.89,3 3,3.89 3,5V19A2,2 0 0,0 5,21H19A2,2 0 0,0 21,19V5C21,3.89 20.1,3 19,3M19,5V19H5V5H19Z M 16.657448,11.605744 C 16.468554,11.36407 16.238596,11.15462 16.025064,10.945169 15.474807,10.461822 14.850636,10.115424 14.325018,9.607909 13.101313,8.4317645 12.830292,6.4903203 13.610506,5 12.830292,5.185283 12.14863,5.6041839 11.565524,6.0633636 9.438413,7.7389669 8.6007091,10.695439 9.602668,13.233012 c 0.03285,0.08056 0.0657,0.161116 0.0657,0.265842 0,0.177227 -0.123191,0.338342 -0.287447,0.402789 -0.188894,0.08056 -0.3860008,0.03222 -0.5420436,-0.09667 -0.049277,-0.04028 -0.082128,-0.08056 -0.114979,-0.136948 C 7.7958564,12.516048 7.6480264,10.864612 8.2721978,9.5434627 6.9006632,10.63905 6.1533001,12.49188 6.2600662,14.239986 c 0.049277,0.402789 0.098554,0.805579 0.2381707,1.208367 0.114979,0.483348 0.336724,0.966694 0.5831075,1.393651 0.8869805,1.393651 2.4227706,2.392568 4.0735396,2.593963 1.757535,0.217506 3.638263,-0.09666 4.985159,-1.288926 1.502939,-1.33726 2.028557,-3.480098 1.256555,-5.316818 l -0.106765,-0.20945 c -0.17247,-0.370567 -0.632385,-1.015029 -0.632385,-1.015029 m -2.59524,5.075145 c -0.229957,0.193339 -0.607745,0.402789 -0.903405,0.483346 -0.919832,0.322232 -1.839663,-0.128892 -2.381707,-0.660574 0.977322,-0.225562 1.560428,-0.934471 1.732898,-1.651435 0.139617,-0.644464 -0.123193,-1.176145 -0.229958,-1.796441 -0.09856,-0.596128 -0.08213,-1.103642 0.139617,-1.659492 0.156042,0.30612 0.320298,0.61224 0.517404,0.853913 0.632385,0.805579 1.626132,1.160034 1.839664,2.25562 0.03285,0.112782 0.04928,0.225562 0.04928,0.3464 0.02463,0.660574 -0.271021,1.385594 -0.763788,1.828663 z"/>
 </svg>
