<svg xmlns="http://www.w3.org/2000/svg" viewBox="0 0 24 24">
    <path d="M 5 3 C 3.8900022 3 3 3.8900022 3 5 L 3 19 C 3 20.104567 3.8954327 21 5 21 L 19 21 C 20.104567 21 21 20.104567 21 19 L 21 5 C 21 3.8900022 20.099998 3 19 3 L 5 3 z M 5 5 L 19 5 L 19 19 L 5 19 L 5 5 z M 6.5 6.5 L 6.5 10.5 L 7.4824219 10.5 L 6.7480469 13.337891 C 6.619067 13.835895 6.5493033 14.25031 6.5488281 14.628906 C 6.548353 15.007503 6.6099293 15.385701 6.8808594 15.708984 C 7.1517898 16.032269 7.6109106 16.156932 7.9570312 16.128906 C 8.303152 16.100876 8.5995354 15.982856 8.9082031 15.826172 C 10.142874 15.199436 11.63978 13.816742 13.158203 12.271484 C 14.509288 10.896524 15.808773 10.020074 16.330078 9.8378906 C 16.329273 10.020254 16.342768 10.325866 16.095703 11.042969 L 15.248047 13.5 L 13.5 13.5 L 13.5 17.5 L 17.5 17.5 L 17.5 13.5 L 16.835938 13.5 L 17.513672 11.533203 C 17.857194 10.536151 18.020954 9.8387294 17.824219 9.15625 C 17.725851 8.8150102 17.455787 8.4612519 17.103516 8.3144531 C 16.751243 8.1676544 16.409665 8.1999007 16.103516 8.2773438 C 14.878916 8.5871155 13.579751 9.7024785 12.087891 11.220703 C 10.612662 12.722002 9.0577124 14.06737 8.2285156 14.488281 C 8.1407557 14.532831 8.1263944 14.527891 8.0625 14.550781 C 8.0695 14.36406 8.1015481 14.09755 8.2011719 13.712891 L 9.0332031 10.5 L 10.5 10.5 L 10.5 6.5 L 6.5 6.5 z " />
</svg>