<svg xmlns="http://www.w3.org/2000/svg" viewBox="0 0 24 24">
    <path d="M 5,3 C 3.8900011,3 3,3.8900011 3,5 v 14 c 0,1.104568 0.8954316,2 2,2 h 14 c 1.104568,0 2,-0.895432 2,-2 V 5 C 21,3.8900011 20.099999,3 19,3 Z M 5,5 H 19 V 19 H 5 Z m 7,2.2421875 c -1.632459,0 -3.1276255,0.4704305 -4.2636719,1.2929687 C 6.6002819,9.3576944 5.8027344,10.590753 5.8027344,12 c 0,1.409247 0.7975475,2.642306 1.9335937,3.464844 1.1360464,0.822538 2.6312129,1.292969 4.2636719,1.292968 1.632459,0 3.127625,-0.47043 4.263672,-1.292968 1.136046,-0.822538 1.933594,-2.055597 1.933594,-3.464844 0,-1.409247 -0.797548,-2.6423056 -1.933594,-3.4648438 C 15.127625,7.712618 13.632459,7.2421875 12,7.2421875 Z m 0,1.9628906 c 1.248376,0 2.36143,0.3755547 3.113281,0.9199219 0.751851,0.544367 1.121094,1.198419 1.121094,1.875 0,0.676581 -0.369243,1.330633 -1.121094,1.875 C 14.36143,14.419367 13.248376,14.794922 12,14.794922 10.751624,14.794922 9.6385697,14.419367 8.8867188,13.875 8.1348677,13.330633 7.765625,12.676581 7.765625,12 c 0,-0.676581 0.3692427,-1.330633 1.1210938,-1.875 C 9.6385697,9.5806328 10.751624,9.2050781 12,9.2050781 Z" />
</svg>