<svg xmlns="http://www.w3.org/2000/svg" viewBox="0 0 24 24">
    <path d="M 1.8691406 1.9492188 L 1.8691406 2.6210938 L 1.8691406 5.9492188 L 3 5.9492188 L 3 8.4746094 L 3 10.050781 L 3 13.951172 L 3 15.525391 L 3 20.212891 L 3 21 L 3 21.001953 L 7.1464844 21.001953 L 7.1464844 22.189453 L 11.146484 22.189453 L 11.146484 21.001953 L 21 21.001953 L 21 21 L 21 20.212891 L 21 19.425781 L 21 16.363281 L 22.324219 16.363281 L 22.324219 12.363281 L 21 12.363281 L 21 3 L 5.8691406 3 L 5.8691406 1.9492188 L 1.8691406 1.9492188 z M 5.8691406 4.5742188 L 8.4746094 4.5742188 L 8.4746094 8.4746094 L 4.5742188 8.4746094 L 4.5742188 5.9492188 L 5.8691406 5.9492188 L 5.8691406 4.5742188 z M 10.050781 4.5742188 L 13.951172 4.5742188 L 13.951172 7.21875 L 12.730469 7.21875 L 12.730469 7.890625 L 12.730469 8.4746094 L 10.050781 8.4746094 L 10.050781 4.5742188 z M 15.525391 4.5742188 L 19.425781 4.5742188 L 19.425781 8.4746094 L 16.730469 8.4746094 L 16.730469 7.21875 L 15.525391 7.21875 L 15.525391 4.5742188 z M 4.5742188 10.050781 L 8.4746094 10.050781 L 8.4746094 13.951172 L 4.5742188 13.951172 L 4.5742188 10.050781 z M 10.050781 10.050781 L 12.730469 10.050781 L 12.730469 11.21875 L 13.951172 11.21875 L 13.951172 13.951172 L 10.050781 13.951172 L 10.050781 10.050781 z M 16.730469 10.050781 L 19.425781 10.050781 L 19.425781 12.363281 L 18.324219 12.363281 L 18.324219 13.033203 L 18.324219 13.951172 L 15.525391 13.951172 L 15.525391 11.21875 L 16.730469 11.21875 L 16.730469 10.050781 z M 4.5742188 15.525391 L 8.4746094 15.525391 L 8.4746094 18.189453 L 7.1464844 18.189453 L 7.1464844 18.859375 L 7.1464844 19.425781 L 4.5742188 19.425781 L 4.5742188 15.525391 z M 10.050781 15.525391 L 13.951172 15.525391 L 13.951172 19.425781 L 11.146484 19.425781 L 11.146484 18.189453 L 10.050781 18.189453 L 10.050781 15.525391 z M 15.525391 15.525391 L 18.324219 15.525391 L 18.324219 16.363281 L 19.425781 16.363281 L 19.425781 19.425781 L 15.525391 19.425781 L 15.525391 15.525391 z " />
</svg>