<svg xmlns="http://www.w3.org/2000/svg" viewBox="0 0 24 24">
    <path d="m 2.4211033,6.486328 c -0.1831501,0 -0.3315258,0.067391 -0.4459946,0.2031251 -0.10989,0.1300782 -0.164197,0.3279376 -0.164197,0.59375 v 9.8749999 c 0,0.05656 0.012467,0.107099 0.03994,0.152343 0.027473,0.04525 0.075546,0.0811 0.1442271,0.109376 0.068681,0.02828 0.1606722,0.05139 0.2751409,0.06836 0.1190476,0.01697 0.2653454,0.02539 0.4393379,0.02539 0.1785713,0 0.3248692,-0.0084 0.4393379,-0.02539 0.1144688,-0.01697 0.2064597,-0.04008 0.2751409,-0.06836 0.068681,-0.02828 0.1167545,-0.06413 0.1442271,-0.109376 0.032051,-0.04524 0.048815,-0.09579 0.048815,-0.152343 v -3.503906 h 0.7411054 c 0.58608,0 1.0939668,-0.08424 1.5243694,-0.253906 0.4349813,-0.169667 0.800726,-0.415913 1.0983448,-0.738282 0.2976188,-0.328023 0.5255181,-0.730009 0.6811956,-1.205078 0.1556775,-0.475068 0.2329822,-1.02026 0.2329822,-1.6367186 0,-0.4467908 -0.050151,-0.8487766 -0.1508837,-1.2050781 C 7.6434597,8.2532771 7.4971619,7.9396402 7.3048543,7.6738281 7.1125468,7.4023601 6.8784138,7.179229 6.6036888,7.0039062 6.3335425,6.8285831 6.0660224,6.7086956 5.8004549,6.6464843 5.5348873,6.5786172 5.3049101,6.5364979 5.1126026,6.5195311 4.9248738,6.4969089 4.7263469,6.486328 4.5157243,6.486328 Z m 6.9317759,0 c -0.1510986,0 -0.2807742,0.05681 -0.3860855,0.1699219 C 8.8660619,6.7637059 8.8159109,6.9406075 8.8159109,7.189453 v 9.570313 c 0,0.248846 0.050151,0.429857 0.1508828,0.542968 0.1053112,0.107456 0.2349868,0.160156 0.3860855,0.160156 h 2.1212468 c 0.787545,0 1.464727,-0.103242 2.032493,-0.3125 0.572343,-0.214912 1.059451,-0.549506 1.457804,-1.001953 0.39835,-0.452445 0.701335,-1.035442 0.911958,-1.748047 0.215201,-0.718257 0.323955,-1.581197 0.323955,-2.58789 0,-0.870959 -0.09822,-1.637125 -0.295109,-2.2988282 C 15.708339,8.851969 15.419899,8.2983533 15.039863,7.8515624 14.664405,7.399116 14.198217,7.0602075 13.64419,6.8339842 13.094738,6.6021056 12.42379,6.486328 11.631666,6.486328 Z m 8.3873598,0 c -0.1511,0 -0.280775,0.05681 -0.386086,0.1699219 -0.100733,0.107456 -0.150884,0.2843576 -0.150884,0.5332031 v 9.951172 c 0,0.06221 0.01469,0.116865 0.04216,0.162109 0.03205,0.04524 0.0822,0.08325 0.150883,0.117188 0.06868,0.02828 0.160672,0.05139 0.275141,0.06836 0.119047,0.01697 0.265346,0.02539 0.439337,0.02539 0.178573,0 0.324869,-0.0084 0.439338,-0.02539 0.114469,-0.01697 0.206461,-0.04008 0.275141,-0.06836 0.07326,-0.03393 0.123411,-0.07194 0.150884,-0.117188 0.02747,-0.04524 0.03994,-0.0999 0.03994,-0.162109 v -4.08789 h 2.727002 c 0.04121,0 0.07889,-0.01469 0.110945,-0.04297 0.03205,-0.03393 0.0592,-0.08859 0.0821,-0.162109 0.02747,-0.07352 0.04631,-0.166186 0.05547,-0.279297 0.01374,-0.113112 0.01997,-0.254161 0.01997,-0.423829 0,-0.169667 -0.0062,-0.310716 -0.01997,-0.423828 -0.0092,-0.113112 -0.028,-0.203617 -0.05547,-0.271484 -0.02289,-0.06787 -0.05005,-0.116254 -0.0821,-0.144532 -0.03205,-0.02828 -0.06974,-0.04297 -0.110945,-0.04297 H 19.016093 V 8.3105469 h 2.906731 c 0.04121,0 0.07667,-0.016848 0.108724,-0.050781 0.03205,-0.033934 0.05921,-0.08643 0.0821,-0.1542969 0.02747,-0.067867 0.04631,-0.1583729 0.05547,-0.2714844 0.01374,-0.1187671 0.01997,-0.2619733 0.01997,-0.4316406 0,-0.1696675 -0.0062,-0.3148267 -0.01997,-0.4335938 -0.0092,-0.1187672 -0.028,-0.21143 -0.05547,-0.2792968 -0.02289,-0.073523 -0.05005,-0.1240659 -0.0821,-0.1523438 -0.03205,-0.033934 -0.06752,-0.050781 -0.108724,-0.050781 z M 3.6170786,8.2070311 h 0.7677319 c 0.1877288,0 0.3696327,0.018801 0.5436252,0.052735 0.1785713,0.028278 0.3478668,0.099983 0.5081231,0.21875 0.1602562,0.1187672 0.2939458,0.3038889 0.4038359,0.5527344 0.10989,0.2488455 0.1664158,0.5646393 0.1664158,0.9492186 0,0.2827799 -0.033528,0.5458719 -0.097631,0.7890619 C 5.8450775,11.007066 5.753227,11.21335 5.6296009,11.388673 5.5059746,11.55834 5.3449905,11.690965 5.1481042,11.78711 4.9557967,11.883259 4.71543,11.931642 4.4269688,11.931642 H 3.6170786 Z m 6.9983414,0.025391 h 0.914178 c 0.554029,0 1.001375,0.094616 1.340202,0.28125 0.343407,0.1809785 0.621316,0.4356481 0.836518,0.7636717 0.219779,0.3280236 0.378685,0.7153187 0.474839,1.1621091 0.100733,0.446791 0.150884,0.930858 0.150884,1.451171 0,0.633425 -0.0586,1.187041 -0.173073,1.66211 -0.109889,0.475069 -0.279186,0.872945 -0.508122,1.195312 -0.22436,0.316713 -0.504347,0.554535 -0.843174,0.712892 -0.338827,0.158356 -0.756943,0.23828 -1.251448,0.23828 H 10.61542 Z"/>
</svg>
