<svg xmlns="http://www.w3.org/2000/svg" viewBox="0 0 24 24">
  <path d="M 2 3 L 2 21 L 22 21 L 22 19 L 4 19 L 4 14.095703 C 5.1562514 12.714404 6.4226505 11.422192 7.8203125 10.265625 C 9.760303 12.307298 10.795012 14.30467 11.300781 17.841797 L 12.490234 17.671875 C 11.965952 14.005271 10.780559 11.684412 8.7636719 9.5214844 C 9.7742111 8.7625146 10.850637 8.0722402 12.001953 7.46875 C 14.091645 9.6324665 15.487598 12.501951 16.304688 16.298828 L 17.476562 16.046875 C 16.659795 12.251494 15.251355 9.237068 13.128906 6.9199219 C 14.181823 6.4394777 15.293779 6.0280689 16.470703 5.6972656 C 18.499254 7.8503785 20.083998 10.652361 20.869141 14.300781 L 22.041016 14.048828 C 21.270221 10.467079 19.748927 7.6057602 17.792969 5.3671875 C 19.098954 5.0786866 20.479199 4.8821942 21.943359 4.796875 L 21.855469 3.2988281 C 13.991704 3.7570634 8.2646336 7.2461215 4 11.832031 L 4 3 L 2 3 z " />
</svg>