<svg xmlns="http://www.w3.org/2000/svg" viewBox="0 0 24 24">
  <path d="M 2 3 L 2 21 L 14.019531 21 A 5.3816075 5.3816042 0 0 1 13.619141 19.052734 A 5.3816075 5.3816042 0 0 1 13.623047 19 L 4 19 L 4 14.095703 C 5.156249 12.714408 6.4226533 11.42219 7.8203125 10.265625 C 9.7602992 12.307294 10.795014 14.304676 11.300781 17.841797 L 12.490234 17.671875 C 11.965954 14.005279 10.780555 11.684408 8.7636719 9.5214844 C 9.7742091 8.762516 10.850639 8.072239 12.001953 7.46875 C 13.771911 9.3014062 15.042337 11.643086 15.886719 14.623047 A 5.3816075 5.3816042 0 0 1 16.962891 14.03125 C 16.115359 11.166601 14.860743 8.8106233 13.128906 6.9199219 C 14.181821 6.4394787 15.293781 6.0280683 16.470703 5.6972656 C 18.430907 7.777835 19.974794 10.466899 20.785156 13.9375 A 5.3816075 5.3816042 0 0 1 21.386719 14.189453 L 22.041016 14.048828 C 21.270221 10.467087 19.748923 7.6057558 17.792969 5.3671875 C 19.09895 5.0786872 20.479203 4.882194 21.943359 4.796875 L 21.855469 3.2988281 C 13.99172 3.7570626 8.264625 7.2461311 4 11.832031 L 4 3 L 2 3 z M 16.880859 15.470703 L 15.470703 16.880859 L 17.589844 19 L 15.470703 21.119141 L 16.880859 22.539062 L 19 20.410156 L 21.119141 22.539062 L 22.539062 21.119141 L 20.410156 19 L 22.539062 16.880859 L 21.119141 15.470703 L 19 17.589844 L 16.880859 15.470703 z " />
</svg>