<svg viewBox="0 0 24 24" xmlns="http://www.w3.org/2000/svg">
  <path d="M 0.91601562 0.5 L 0.91601562 22.5 L 22.916016 22.5 L 22.916016 20.5 L 2.9160156 20.5 L 2.9160156 0.5 L 0.91601562 0.5 z M 4.5 3 L 4.5 3.6796875 L 4.5 13 L 5.5957031 12.527344 L 10.154297 10.558594 L 10.154297 9.5078125 C 10.669395 10.420587 11.63531 11.046875 12.75 11.046875 C 13.86469 11.046875 14.830603 10.420587 15.345703 9.5078125 L 15.345703 10.558594 L 19.904297 12.527344 L 21 13 L 21 3 L 20.369141 3.2714844 L 15.345703 5.4414062 L 15.345703 6.4921875 C 14.830603 5.5794122 13.86469 4.953125 12.75 4.953125 C 11.63531 4.953125 10.669395 5.5794122 10.154297 6.4921875 L 10.154297 5.4414062 L 4.5 3 z M 6.0214844 5.4160156 L 8.5820312 6.5292969 L 8.6054688 9.5292969 L 6.0625 10.660156 L 6.0214844 5.4160156 z M 19.478516 5.4160156 L 19.4375 10.660156 L 16.896484 9.5292969 L 16.917969 6.5292969 L 19.478516 5.4160156 z M 12.75 6.4570312 C 13.553066 6.4570312 14.21875 7.1231634 14.21875 8 C 14.21875 8.8768366 13.553066 9.5429687 12.75 9.5429688 C 11.946934 9.5429688 11.28125 8.8768366 11.28125 8 C 11.28125 7.1231634 11.946934 6.4570312 12.75 6.4570312 z M 11 14 L 11 18 L 15 18 L 15 14 L 11 14 z " />
</svg>
