<svg viewBox="0 0 24 24" xmlns="http://www.w3.org/2000/svg">
  <path d="M 1 5.25 L 1 6.1679688 L 1 18.75 L 2.4609375 18.111328 L 8.5390625 15.453125 L 8.5390625 14.035156 C 9.2258623 15.267404 10.513746 16.113281 12 16.113281 C 13.486254 16.113281 14.774138 15.267404 15.460938 14.035156 L 15.460938 15.453125 L 21.539062 18.111328 L 23 18.75 L 23 5.25 L 22.158203 5.6171875 L 15.460938 8.546875 L 15.460938 9.9648438 C 14.774138 8.7325964 13.486254 7.8867188 12 7.8867188 C 10.513746 7.8867188 9.2258623 8.7325964 8.5390625 9.9648438 L 8.5390625 8.546875 L 1 5.25 z M 3.0292969 8.5117188 L 6.4433594 10.013672 L 6.4726562 14.064453 L 3.0839844 15.591797 L 3.0292969 8.5117188 z M 20.970703 8.5117188 L 20.916016 15.591797 L 17.527344 14.064453 L 17.556641 10.013672 L 20.970703 8.5117188 z M 12 9.9179688 C 13.070756 9.9179688 13.958984 10.81627 13.958984 12 C 13.958984 13.18373 13.070756 14.082031 12 14.082031 C 10.929244 14.082031 10.041016 13.18373 10.041016 12 C 10.041016 10.81627 10.929244 9.9179688 12 9.9179688 z " />
</svg>
