<svg xmlns="http://www.w3.org/2000/svg" viewBox="0 0 24 24">
  <path d="M 2 3 L 2 21 L 22 21 L 22 19 L 4 19 L 4 3 L 2 3 z M 11.4375 3.1113281 C 9.9249122 3.0736111 8.5333987 3.7984136 7.3574219 4.7363281 C 6.1030465 5.7367704 5.0599257 7.0081829 4.3183594 8.0957031 L 5.5585938 8.9414062 C 6.235859 7.9481847 7.210066 6.7738385 8.2929688 5.9101562 C 9.3758714 5.0464741 10.531688 4.5235457 11.603516 4.6230469 C 11.678112 4.6299718 11.752779 4.6395555 11.828125 4.6523438 C 10.868915 5.0199569 9.9801368 5.6105022 9.1796875 6.2792969 C 7.8580583 7.3835498 6.7654425 8.7243365 6.0234375 9.8125 L 7.2617188 10.658203 C 7.9385441 9.6656269 8.9677935 8.4115696 10.140625 7.4316406 C 11.303253 6.4602374 12.593214 5.7845583 13.777344 5.7558594 C 14.182239 6.1650496 14.593302 6.7028451 15.007812 7.40625 C 16.189311 9.4112012 17.319412 12.710215 18.195312 17.746094 L 19.673828 17.488281 C 18.77984 12.348412 17.630136 8.9037003 16.298828 6.6445312 C 14.96752 4.3853623 13.372296 3.2802346 11.742188 3.1289062 C 11.640306 3.1194482 11.538339 3.1138426 11.4375 3.1113281 z M 16.121094 4.8496094 C 17.422232 6.6473616 18.437133 8.8097779 18.992188 11.382812 C 19.642973 13.157645 20.240768 15.428674 20.738281 18.289062 L 22.216797 18.03125 C 21.321745 12.885263 20.119957 9.5016207 18.691406 7.3378906 C 17.912766 6.1585351 17.036021 5.3446586 16.121094 4.8496094 z " />
</svg>