<svg xmlns="http://www.w3.org/2000/svg" viewBox="0 0 24 24">
  <path d="M 2 3 L 2 21 L 14.019531 21 C 13.766297 20.38141 13.630517 19.721055 13.619141 19.052734 C 13.620341 19.035154 13.621647 19.01757 13.623047 19 L 4 19 L 4 14.095703 C 5.1562478 12.71441 6.4226547 11.422189 7.8203125 10.265625 C 9.7602973 12.307292 10.795015 14.304679 11.300781 17.841797 L 12.490234 17.671875 C 11.965955 14.005279 10.780553 11.684406 8.7636719 9.5214844 C 9.7742081 8.7625167 10.85064 8.0722384 12.001953 7.46875 C 13.771909 9.3014044 15.042338 11.643089 15.886719 14.623047 C 16.221684 14.385361 16.582759 14.186802 16.962891 14.03125 C 16.115359 11.166604 14.860742 8.8106214 13.128906 6.9199219 C 14.18182 6.4394792 15.293782 6.028068 16.470703 5.6972656 C 18.430905 7.7778329 19.974795 10.466902 20.785156 13.9375 C 20.990586 14.00924 21.191476 14.093384 21.386719 14.189453 L 22.041016 14.048828 C 21.270221 10.467091 19.748921 7.6057536 17.792969 5.3671875 C 19.098948 5.0786875 20.479205 4.8821939 21.943359 4.796875 L 21.855469 3.2988281 C 13.991728 3.7570622 8.2646207 7.2461359 4 11.832031 L 4 3 L 2 3 z M 19.505859 16.005859 L 19.505859 18.005859 L 15.505859 18.005859 L 15.505859 20.005859 L 19.505859 20.005859 L 19.505859 22.005859 L 22.505859 19.005859 L 19.505859 16.005859 z " />
</svg>