<svg xmlns="http://www.w3.org/2000/svg" viewBox="0 0 24 24">
    <path d="M 18.390625 2.4765625 L 17.414062 4.0820312 C 15.667532 6.9514912 12.206746 9.7651959 7.0878906 10.646484 L 6.5957031 10.730469 L 6.484375 11.216797 C 6.0592576 13.067195 4.9958274 15.057922 4.2460938 16.423828 L 5.5625 17.144531 C 6.2621513 15.869869 7.2487925 13.974593 7.7871094 11.998047 C 12.380819 11.090653 15.70994 8.7350915 17.775391 6.0546875 C 18.234 7.6008251 18.894947 9.1717673 20.589844 10.980469 L 21.683594 9.953125 C 19.648753 7.7816534 19.206002 6.2535773 18.787109 4.3125 L 18.390625 2.4765625 z M 2 3 L 2 21 L 22 21 L 22 19 L 4 19 L 4 3 L 2 3 z " />
</svg>