<?xml version="1.0" encoding="UTF-8" standalone="no"?>
<!-- based on https://commons.wikimedia.org/wiki/File:Python_and_Qt_2.svg -->
<svg xmlns:dc="http://purl.org/dc/elements/1.1/" xmlns:cc="http://creativecommons.org/ns#" xmlns:rdf="http://www.w3.org/1999/02/22-rdf-syntax-ns#" xmlns:svg="http://www.w3.org/2000/svg" xmlns="http://www.w3.org/2000/svg" xmlns:xlink="http://www.w3.org/1999/xlink" version="1.1" width="256" height="256">
  <metadata id="metadata">
    <rdf:RDF>
      <cc:Work rdf:about="">
        <dc:format>image/svg+xml</dc:format>
        <dc:type rdf:resource="http://purl.org/dc/dcmitype/StillImage"/>
        <dc:title/>
      </cc:Work>
    </rdf:RDF>
  </metadata>
  <g transform="matrix(0.98461515,0,0,0.98467492,2.7573489e-6,-0.01541943)" id="global">
	<path fill="black" d="M 127.07728,2.7533125e-4 C 62.088614,2.7999232e-4 66.146926,28.330822 66.146926,28.330822 l 0.07245,29.350155 62.017104,0 0,8.812329 -86.650065,0 c 0,0 -41.586235775,-4.740948 -41.586235775,61.176504 -4.63679e-6,65.91743 36.297393775,63.57986 36.297393775,63.57986 l 21.662516,0 0,-30.58825 c 0,0 -1.167665,-36.48741 35.717795,-36.48741 36.885456,0 61.509956,0 61.509956,0 0,0 34.55859,0.56156 34.55859,-33.574249 0,-34.135803 0,-56.442606 0,-56.442606 0,-4e-6 5.24695,-34.15687966875 -62.66915,-34.15687966875 z M 92.880934,19.73698 c 6.170247,-5e-6 11.157286,5.013143 11.157286,11.215692 0,6.202549 -4.987039,11.215692 -11.157286,11.215692 -6.170247,5e-6 -11.157283,-5.013143 -11.157283,-11.215692 -4e-6,-6.202549 4.987036,-11.215692 11.157283,-11.215692 z M 222.00933 64.710234 L 221.75145 64.718168 L 221.71972 64.718168 L 198.01518 64.718168 L 198.00923 68.774472 C 197.99333 78.807594 198.03913 88.82071 197.98543 98.808972 C 197.59813 106.57627 195.3271 114.29092 190.82051 120.2806 L 190.81654 120.28655 L 190.81257 120.29052 C 187.26835 125.02998 182.00971 128.54234 176.24867 130.19623 L 176.22089 130.20417 L 176.19114 130.21409 C 171.70963 131.5714 166.7792 131.88678 161.69468 131.79495 L 161.65699 131.79495 L 161.62128 131.79495 C 141.7968 131.80395 121.96281 131.77764 102.12588 131.80884 L 102.0386 131.80884 L 101.94933 131.8128 C 94.465089 132.15302 86.822753 134.15356 80.291917 138.45166 C 74.600654 142.17826 70.324756 147.80097 68.213514 154.2524 C 66.408878 159.5548 66.122852 164.95702 66.221937 170.01347 C 66.212937 188.03683 66.239891 206.0548 66.208051 224.06248 L 66.22392 223.72726 C 65.62789 230.75631 68.432212 237.40784 72.714401 242.40213 L 72.716384 242.40411 L 72.718368 242.40808 C 78.299683 248.90162 85.91666 252.65625 93.33437 255.09667 L 93.346272 255.10064 L 93.358174 255.10461 C 104.12873 258.57597 115.31013 259.68112 126.20929 259.97019 L 126.21127 259.97019 L 126.21325 259.97019 C 130.72411 260.08449 135.22363 260.02738 139.70401 259.84919 L 139.7417 259.84919 L 139.78137 259.84522 C 140.69014 259.79182 141.95638 259.74635 143.15952 259.66076 C 144.75974 259.56266 146.19766 259.44809 147.80322 259.30372 L 147.80918 259.30372 L 147.81513 259.30372 C 150.10168 259.09159 152.5568 258.80271 154.71622 258.49048 L 154.74598 258.48453 L 154.77771 258.48056 C 155.74307 258.32606 156.70597 258.1939 157.75119 258.00452 L 157.75715 258.00253 C 165.64699 256.60903 173.83991 254.44728 181.17802 249.96331 L 181.18199 249.96133 L 181.18595 249.95736 C 186.3462 246.78537 191.32348 242.03047 193.22865 235.37451 C 193.97084 232.94817 193.9837 230.64492 193.8773 228.6583 L 193.88325 228.86657 L 193.80986 198.28858 L 131.79523 198.28858 L 131.79523 193.54003 C 160.05612 193.54303 188.31515 193.53298 216.57216 193.54598 L 216.33214 193.53805 C 223.45027 193.96249 230.49432 192.0384 236.49389 188.49196 L 236.49984 188.488 C 244.27525 183.90443 249.77653 176.60264 253.23584 168.78963 L 253.23584 168.78765 C 254.39307 166.19489 255.35088 163.57505 256.14187 160.92497 C 257.89544 155.06041 258.93189 148.91913 259.48233 142.87888 L 259.48034 142.88483 C 259.73057 140.1823 259.87789 137.59747 259.96634 134.90908 L 259.96634 134.89917 L 259.96634 134.88925 C 260.02164 132.88814 260.04683 130.68197 260.01593 128.57173 L 260.01593 128.56975 C 259.88233 117.36293 258.81758 105.85886 255.25122 94.802256 L 255.24923 94.798289 L 255.24923 94.794322 C 252.56506 86.538863 248.25252 78.24539 241.10586 72.223818 L 241.10189 72.221834 L 241.09991 72.219851 C 236.99799 68.776167 231.97891 66.234678 226.53005 65.227933 L 226.62328 64.718168 L 222.14818 64.718168 C 222.13088 64.717835 222.11589 64.712517 222.09859 64.712217 L 222.00933 64.710234 z M 221.98751 72.840693 C 226.90342 72.934623 231.90194 75.10864 235.87499 78.444145 C 241.41405 83.114022 245.13553 89.977242 247.51699 97.297527 C 250.72128 107.2316 251.76482 117.91605 251.89291 128.66892 L 251.89291 128.67487 L 251.89291 128.68082 C 251.92181 130.6339 251.89612 132.73721 251.84332 134.64329 C 251.75882 137.21215 251.62404 139.61885 251.39105 142.13506 L 251.39105 142.13902 L 251.39105 142.14101 C 250.87942 147.75541 249.91632 153.38493 248.35806 158.59631 L 248.35806 158.59829 L 248.35607 158.59829 C 247.65838 160.93612 246.82401 163.22115 245.81701 165.47715 L 245.81304 165.4831 L 245.81106 165.49104 C 242.88859 172.09592 238.32093 177.98682 232.37188 181.49211 L 232.36791 181.4941 L 232.36394 181.49608 C 227.66709 184.27364 222.14167 185.74697 216.81615 185.42941 L 216.69515 185.42147 L 216.57613 185.42147 C 186.9603 185.40747 157.34506 185.41952 127.73272 185.41552 L 123.67022 185.41552 L 123.67022 206.41309 L 185.70271 206.41309 L 185.75825 228.99153 L 185.7642 229.09467 C 185.8491 230.68019 185.77431 232.00027 185.45872 233.01808 L 185.44285 233.06569 L 185.43095 233.11329 C 184.30582 237.07883 180.96753 240.55364 176.93104 243.03487 C 170.91361 246.70927 163.74141 248.69589 156.33884 250.00299 L 156.32892 250.00497 L 156.319 250.00695 C 155.50817 250.15434 154.59936 250.28041 153.55182 250.44729 C 151.55574 250.7359 149.20519 251.01422 147.06333 251.21293 C 145.51153 251.35239 144.16968 251.45967 142.66162 251.55212 L 142.6398 251.5541 L 142.61798 251.55608 C 141.64921 251.62588 140.4423 251.66943 139.38068 251.73063 C 139.37868 251.73071 139.37673 251.73055 139.37473 251.73063 C 135.04638 251.90267 130.72613 251.95456 126.42352 251.84568 C 115.9352 251.56751 105.53734 250.48855 95.859548 247.37085 C 95.856448 247.36985 95.852829 247.36993 95.849629 247.36887 C 89.246194 245.19353 83.059743 241.97349 78.879563 237.11009 C 75.804111 233.52166 73.9473 228.80102 74.319168 224.41554 L 74.333053 224.24694 L 74.333053 224.07834 C 74.364983 206.02556 74.337869 187.9759 74.346939 169.93611 L 74.346939 169.89446 L 74.346939 169.85479 C 74.256259 165.22719 74.564751 160.78401 75.906082 156.85279 L 75.914017 156.82701 L 75.923935 156.79924 C 77.45083 152.11617 80.636265 147.93581 84.749163 145.24522 L 84.755114 145.24125 L 84.759081 145.23729 C 89.800227 141.91959 96.012226 140.2239 102.2806 139.93335 C 122.02947 139.90255 141.78593 139.93015 161.54789 139.92145 C 167.04216 140.02065 172.82601 139.71648 178.52589 137.99346 C 185.91925 135.86233 192.63429 131.41698 197.31099 125.168 L 197.31297 125.16404 C 203.03924 117.55151 205.66124 108.2358 206.10448 99.152121 L 206.11043 99.064846 L 206.11043 98.977571 C 206.15813 90.247859 206.12866 81.541566 206.13026 72.84466 L 216.87963 72.84466 L 216.85781 72.973589 L 221.98751 72.840693 z M 165.11844 214.00403 C 157.95966 214.00403 152.13352 219.87009 152.13352 227.04966 C 152.13352 234.22924 157.95966 240.09132 165.11844 240.09132 C 172.27723 240.09132 178.10538 234.22925 178.10536 227.04966 C 178.10536 219.87009 172.27723 214.00403 165.11844 214.00403 z "
	id="snake2"/>
  </g>
</svg>