<svg xmlns="http://www.w3.org/2000/svg" viewBox="0 0 24 24">
    <path d="M 2 3 L 2 21 L 22 21 L 22 19 L 4 19 L 4 3 L 2 3 z M 20.189453 3.1289062 C 18.517509 6.6222183 17.147363 8.1738254 16.070312 8.7695312 C 14.993263 9.365237 14.122303 9.1459718 13.023438 8.8398438 C 11.924571 8.5337156 10.616223 8.1121082 9.1640625 8.7128906 C 7.7119022 9.313673 6.2651805 10.83442 4.5761719 14.068359 L 5.6386719 14.623047 C 7.2674549 11.504421 8.5840407 10.250167 9.6230469 9.8203125 C 10.662053 9.3904587 11.57195 9.6815089 12.701172 9.9960938 C 13.830394 10.310679 15.198886 10.621172 16.650391 9.8183594 C 18.101894 9.0155467 19.550862 7.2415027 21.271484 3.6464844 L 20.189453 3.1289062 z M 13.255859 12.361328 C 13.163831 12.360365 13.072517 12.360926 12.980469 12.363281 C 10.03493 12.438631 7.1981443 14.221705 4.9082031 17.582031 L 5.9003906 18.257812 C 8.0442681 15.111824 10.525272 13.626058 13.009766 13.5625 C 15.494259 13.49894 18.095459 14.864234 20.460938 17.773438 L 21.390625 17.017578 C 18.94671 14.011908 16.108734 12.391189 13.255859 12.361328 z " />
</svg>