<svg xmlns="http://www.w3.org/2000/svg" viewBox="0 0 24 24">
    <path d="M 2 3 L 2 21 L 22 21 L 22 19 L 4 19 L 4 3 L 2 3 z M 20.326172 4.2773438 C 18.472929 8.0981501 16.995709 9.8326461 15.875 10.496094 C 14.754291 11.159541 13.939515 10.920442 12.896484 10.550781 C 11.853454 10.181118 10.617881 9.6133774 9.1953125 10.101562 C 7.7727448 10.589747 6.377592 12.024971 4.7109375 15.21875 L 5.7753906 15.775391 C 7.3813167 12.697984 8.6379696 11.561644 9.5859375 11.236328 C 10.533905 10.911012 11.387504 11.289438 12.494141 11.681641 C 13.600777 12.073846 14.997062 12.410926 16.486328 11.529297 C 17.975595 10.647668 19.508032 8.7143126 21.40625 4.8007812 L 20.326172 4.2773438 z " />
</svg>