<svg xmlns="http://www.w3.org/2000/svg" viewBox="0 0 24 24">
  <path d="M 3.5 4 L 2.3398438 8.3496094 L 3.3007812 8.609375 C 3.7507808 7.7393768 4.2102359 6.8696867 4.7402344 6.4296875 C 5.2702338 5.9996883 5.8900016 6 6.5 6 L 9 6 L 9 16.5 C 9 17 8.9999205 17.5 8.6699219 17.75 C 8.3299222 18 7.6699983 18 7 18 L 7 19 L 9.0253906 19 A 7.4946871 5.0861864 0 0 1 11 15.730469 L 11 6 L 13.5 6 C 14.109998 6 14.729766 5.9996883 15.259766 6.4296875 C 15.789764 6.8696867 16.249219 7.7393768 16.699219 8.609375 L 17.660156 8.3496094 L 16.5 4 L 3.5 4 z M 17 15 C 14.300003 15 11.899999 16.700001 11 19 C 11.899999 21.299998 14.300003 23 17 23 C 19.699997 23 22.100001 21.299998 23 19 C 22.100001 16.700001 19.699997 15 17 15 z M 17 16.5 C 18.399999 16.5 19.5 17.600001 19.5 19 C 19.5 20.399998 18.399999 21.5 17 21.5 C 15.600001 21.5 14.5 20.399998 14.5 19 C 14.5 17.600001 15.600001 16.5 17 16.5 z M 17 18 C 16.400001 18 16 18.4 16 19 C 16 19.599999 16.400001 20 17 20 C 17.599999 20 18 19.599999 18 19 C 18 18.4 17.599999 18 17 18 z " />
</svg>
