<svg viewBox="0 0 24 24" xmlns="http://www.w3.org/2000/svg">
  <path d="M 17 4 L 17 6 L 20.390625 6 L 17 10 L 17 12 L 23 12 L 23 10 L 19.619141 10 L 23 6 L 23 4 L 17 4 z M 10.826172 8 L 14.003906 11.177734 L 15 10 L 15 8 L 10.826172 8 z M 9 8.7226562 L 9 10 L 10.277344 10 L 9 8.7226562 z M 11.419922 11.144531 L 9 14 L 9 16 L 15 16 L 15 14.724609 L 14.275391 14 L 11.619141 14 L 12.835938 12.560547 L 11.419922 11.144531 z M 1 12 L 1 14 L 4.390625 14 L 1 18 L 1 20 L 7 20 L 7 18 L 3.6191406 18 L 7 14 L 7 12 L 1 12 z M 3,4.27 4.28,3 21,19.72 19.73,21 3,4.27"/>
</svg>
