<svg xmlns="http://www.w3.org/2000/svg" viewBox="0 0 24 24">
    <path d="M 5.1828253 5.276127 C 4.6986015 5.276127 4.2394861 5.3398609 3.8042287 5.4649974 C 3.3744121 5.5901338 2.9996679 5.7793922 2.6786656 6.0351059 C 2.363104 6.2853789 2.10999 6.6036593 1.9195649 6.9899502 C 1.7345806 7.3708004 1.6425368 7.8147997 1.6425368 8.3207864 C 1.6425368 8.7614845 1.7082788 9.1401954 1.838856 9.455757 C 1.9694332 9.7713186 2.1359945 10.045491 2.3427418 10.279441 C 2.5549297 10.507952 2.7959835 10.70712 3.0625786 10.875782 C 3.3291737 11.039003 3.6042017 11.185902 3.887119 11.316479 C 4.1700363 11.447057 4.4428829 11.571027 4.7094781 11.690722 C 4.9760732 11.804977 5.2138424 11.930696 5.4205896 12.066714 C 5.6327776 12.197291 5.8048048 12.349048 5.935382 12.523151 C 6.0659593 12.691813 6.1295199 12.895839 6.1295199 13.13523 C 6.1295199 13.341978 6.0922611 13.529682 6.016091 13.698344 C 5.939921 13.867006 5.8292479 14.009047 5.6823485 14.123302 C 5.5408898 14.237557 5.365578 14.327328 5.1588308 14.392617 C 4.9520835 14.452465 4.7175989 14.481806 4.4564445 14.481806 C 4.0592722 14.481806 3.7097266 14.439446 3.4050464 14.352395 C 3.105807 14.259902 2.8461239 14.158667 2.6284952 14.049852 C 2.4108665 13.941038 2.2333482 13.843106 2.0918895 13.756054 C 1.9558716 13.663562 1.8495863 13.617899 1.7734162 13.617899 C 1.7190091 13.617899 1.668612 13.634221 1.6250862 13.666865 C 1.5870012 13.694069 1.5541302 13.743035 1.5269267 13.813765 C 1.5051638 13.884494 1.489819 13.97582 1.4789375 14.090075 C 1.4680561 14.20433 1.4614869 14.346371 1.4614869 14.515033 C 1.4614869 14.765306 1.4757285 14.957868 1.5029321 15.093885 C 1.5355764 15.224463 1.5870768 15.325698 1.6578061 15.396428 C 1.7285354 15.467157 1.8424931 15.548767 2.0002739 15.64126 C 2.1634954 15.733752 2.3651091 15.823523 2.6045006 15.910575 C 2.8438922 15.992185 3.1189201 16.062332 3.429041 16.122179 C 3.7446026 16.182027 4.0853725 16.213117 4.4499005 16.213117 C 4.9885315 16.213117 5.4947595 16.141222 5.9681019 15.999763 C 6.4414443 15.858305 6.8534472 15.649421 7.2070938 15.371945 C 7.5607404 15.089027 7.8423376 14.738103 8.0490848 14.319167 C 8.2558321 13.900232 8.3588328 13.413873 8.3588328 12.85892 C 8.3588328 12.434544 8.2930909 12.067298 8.1625136 11.757177 C 8.0319364 11.441615 7.8599092 11.168998 7.6477212 10.940488 C 7.4355333 10.706537 7.1933763 10.507369 6.9213404 10.344147 C 6.6493046 10.175485 6.3731733 10.027032 6.090256 9.8964544 C 5.8073388 9.7658772 5.5290262 9.6434617 5.2569903 9.5292066 C 4.9849545 9.4095108 4.7395129 9.283792 4.5218842 9.1532148 C 4.3096963 9.0171968 4.1398503 8.8654404 4.0092731 8.6967782 C 3.8841366 8.5226752 3.8216793 8.3186493 3.8216793 8.0846985 C 3.8216793 7.9269177 3.8479811 7.7767158 3.9023883 7.6352571 C 3.9622362 7.4937985 4.0498921 7.3746862 4.1641471 7.2767533 C 4.2838429 7.1733797 4.4306716 7.0933238 4.6047745 7.0389166 C 4.7788775 6.9790687 4.9815944 6.9497278 5.2155452 6.9497278 C 5.5147846 6.9497278 5.7898126 6.9872297 6.0400856 7.0633998 C 6.2903586 7.1341291 6.5106016 7.2157395 6.7010267 7.3082317 C 6.8914518 7.3952831 7.0525221 7.4768935 7.1830993 7.5530635 C 7.3136765 7.6292336 7.4090048 7.6684843 7.4688527 7.6684843 C 7.5287006 7.6684843 7.5758131 7.6521622 7.6084574 7.6195179 C 7.6465424 7.5868736 7.6728442 7.5346041 7.6891664 7.4638748 C 7.7109293 7.3931455 7.7251708 7.3033741 7.7306115 7.1945597 C 7.741493 7.0857454 7.7458808 6.9518655 7.7458808 6.7940847 C 7.7458808 6.6526261 7.7447775 6.5368171 7.7393368 6.4443249 C 7.7338961 6.346392 7.7229391 6.2663361 7.706617 6.2064882 C 7.6957355 6.1411996 7.6782094 6.0906789 7.6564465 6.0525939 C 7.6401244 6.0145089 7.6039688 5.9670971 7.5495617 5.9126899 C 7.4951545 5.8582828 7.3844813 5.79144 7.2158191 5.7098292 C 7.0471569 5.6282185 6.8532157 5.5547692 6.635587 5.4894805 C 6.4179583 5.4241919 6.185655 5.3719224 5.935382 5.3338374 C 5.6851091 5.2957524 5.4330983 5.276127 5.1828253 5.276127 z M 9.1004829 5.4649974 C 9.0460757 5.4649974 9.0011445 5.4813194 8.9630595 5.5139637 C 8.9249745 5.5411673 8.8921035 5.5901335 8.8648999 5.6608629 C 8.8376963 5.7261515 8.8157823 5.8159229 8.7994602 5.9301779 C 8.7885788 6.044433 8.7820096 6.1831706 8.7820096 6.3463921 C 8.7820096 6.5041729 8.7885788 6.6396073 8.7994602 6.7538623 C 8.8157823 6.8626767 8.8376963 6.9524481 8.8648999 7.0231774 C 8.8921035 7.088466 8.9249745 7.1374322 8.9630595 7.1700765 C 9.0011445 7.2027208 9.0460757 7.2190429 9.1004829 7.2190429 L 11.746429 7.2190429 L 11.746429 15.730448 C 11.746429 15.784856 11.761773 15.833822 11.794418 15.877348 C 11.832503 15.920873 11.891676 15.956821 11.973286 15.984024 C 12.054897 16.011228 12.164467 16.032408 12.300485 16.04873 C 12.441944 16.065052 12.615074 16.073213 12.821821 16.073213 C 13.028569 16.073213 13.200596 16.065052 13.336614 16.04873 C 13.478072 16.032408 13.588745 16.011228 13.670356 15.984024 C 13.751967 15.956821 13.810037 15.920873 13.842681 15.877348 C 13.880766 15.833822 13.899395 15.784856 13.899395 15.730448 L 13.899395 7.2190429 L 16.54316 7.2190429 C 16.592126 7.2190429 16.635954 7.2027208 16.674039 7.1700765 C 16.717565 7.1374322 16.75372 7.088466 16.780924 7.0231774 C 16.808128 6.9524481 16.826757 6.8626767 16.837638 6.7538623 C 16.853961 6.6396073 16.861633 6.5041729 16.861633 6.3463921 C 16.861633 6.1831706 16.853961 6.044433 16.837638 5.9301779 C 16.826757 5.8159229 16.808128 5.7261515 16.780924 5.6608629 C 16.75372 5.5901335 16.717565 5.5411673 16.674039 5.5139637 C 16.635954 5.4813194 16.592126 5.4649974 16.54316 5.4649974 L 9.1004829 5.4649974 z M 18.837912 5.4649974 C 18.620284 5.4649974 18.443869 5.5302857 18.307851 5.6608629 C 18.177273 5.7859994 18.111531 5.9752577 18.111531 6.2309714 L 18.111531 15.730448 C 18.111531 15.784856 18.126876 15.833822 18.159521 15.877348 C 18.192165 15.920873 18.250234 15.956821 18.331845 15.984024 C 18.413456 16.011228 18.520845 16.032408 18.656862 16.04873 C 18.798321 16.065052 18.973633 16.073213 19.18038 16.073213 C 19.392568 16.073213 19.565699 16.065052 19.701717 16.04873 C 19.837734 16.032408 19.947304 16.011228 20.028915 15.984024 C 20.110526 15.956821 20.168595 15.920873 20.20124 15.877348 C 20.239325 15.833822 20.257954 15.784856 20.257954 15.730448 L 20.257954 12.360512 L 21.139209 12.360512 C 21.835621 12.360512 22.43828 12.278902 22.949708 12.115681 C 23.466576 11.952459 23.902674 11.715789 24.256321 11.405668 C 24.609967 11.090106 24.878426 10.703234 25.06341 10.246214 C 25.248395 9.789194 25.34262 9.2653332 25.34262 8.672295 C 25.34262 8.2424784 25.281266 7.8556063 25.16157 7.5128412 C 25.041874 7.1646353 24.868744 6.8626769 24.640234 6.6069632 C 24.411723 6.3458088 24.133411 6.1303185 23.806968 5.9616563 C 23.485966 5.7929941 23.16711 5.6787396 22.851548 5.6188917 C 22.535986 5.5536031 22.264243 5.5127979 22.035733 5.4964757 C 21.812664 5.4747129 21.577076 5.4649974 21.326803 5.4649974 L 18.837912 5.4649974 z M 20.257954 7.1211102 L 21.171929 7.1211102 C 21.394998 7.1211102 21.608672 7.1374322 21.815419 7.1700765 C 22.027607 7.1972801 22.229221 7.2674262 22.419646 7.3816812 C 22.610071 7.4959363 22.771141 7.6739246 22.901719 7.9133162 C 23.032296 8.1527077 23.098038 8.4562206 23.098038 8.8261893 C 23.098038 9.0982252 23.058598 9.3512173 22.982428 9.5851682 C 22.906257 9.8136783 22.795584 10.012846 22.648685 10.181509 C 22.501786 10.34473 22.311129 10.472003 22.077178 10.564496 C 21.848668 10.656988 21.562683 10.7044 21.219918 10.7044 L 20.257954 10.7044 L 20.257954 7.1211102 z " transform="scale(0.89538518,1.1168378)" />
</svg>
